<?xml version="1.0" encoding="UTF-8"?>
<svg xmlns="http://www.w3.org/2000/svg" xmlns:xlink="http://www.w3.org/1999/xlink" width="227.17" height="142.131" viewBox="0 0 227.17 142.131">
<defs>
<clipPath id="clip-0">
<path clip-rule="nonzero" d="M 202 95 L 227.171875 95 L 227.171875 128 L 202 128 Z M 202 95 "/>
</clipPath>
<clipPath id="clip-1">
<path clip-rule="nonzero" d="M 202 103 L 227.171875 103 L 227.171875 133 L 202 133 Z M 202 103 "/>
</clipPath>
<clipPath id="clip-2">
<path clip-rule="nonzero" d="M 169 118 L 201 118 L 201 142.132812 L 169 142.132812 Z M 169 118 "/>
</clipPath>
<clipPath id="clip-3">
<path clip-rule="nonzero" d="M 180 119 L 212 119 L 212 142.132812 L 180 142.132812 Z M 180 119 "/>
</clipPath>
<clipPath id="clip-4">
<path clip-rule="nonzero" d="M 46 118 L 79 118 L 79 142.132812 L 46 142.132812 Z M 46 118 "/>
</clipPath>
<clipPath id="clip-5">
<path clip-rule="nonzero" d="M 149 118 L 181 118 L 181 142.132812 L 149 142.132812 Z M 149 118 "/>
</clipPath>
<clipPath id="clip-6">
<path clip-rule="nonzero" d="M 35 118 L 68 118 L 68 142.132812 L 35 142.132812 Z M 35 118 "/>
</clipPath>
<clipPath id="clip-7">
<path clip-rule="nonzero" d="M 128 118 L 161 118 L 161 142.132812 L 128 142.132812 Z M 128 118 "/>
</clipPath>
<clipPath id="clip-8">
<path clip-rule="nonzero" d="M 159 118 L 192 118 L 192 142.132812 L 159 142.132812 Z M 159 118 "/>
</clipPath>
<clipPath id="clip-9">
<path clip-rule="nonzero" d="M 138 118 L 171 118 L 171 142.132812 L 138 142.132812 Z M 138 118 "/>
</clipPath>
<clipPath id="clip-10">
<path clip-rule="nonzero" d="M 66 118 L 99 118 L 99 142.132812 L 66 142.132812 Z M 66 118 "/>
</clipPath>
<clipPath id="clip-11">
<path clip-rule="nonzero" d="M 56 118 L 89 118 L 89 142.132812 L 56 142.132812 Z M 56 118 "/>
</clipPath>
<clipPath id="clip-12">
<path clip-rule="nonzero" d="M 118 118 L 151 118 L 151 142.132812 L 118 142.132812 Z M 118 118 "/>
</clipPath>
<clipPath id="clip-13">
<path clip-rule="nonzero" d="M 87 118 L 120 118 L 120 142.132812 L 87 142.132812 Z M 87 118 "/>
</clipPath>
<clipPath id="clip-14">
<path clip-rule="nonzero" d="M 107 118 L 140 118 L 140 142.132812 L 107 142.132812 Z M 107 118 "/>
</clipPath>
<clipPath id="clip-15">
<path clip-rule="nonzero" d="M 97 118 L 130 118 L 130 142.132812 L 97 142.132812 Z M 97 118 "/>
</clipPath>
<clipPath id="clip-16">
<path clip-rule="nonzero" d="M 77 118 L 109 118 L 109 142.132812 L 77 142.132812 Z M 77 118 "/>
</clipPath>
<clipPath id="clip-17">
<path clip-rule="nonzero" d="M 202 14 L 227.171875 14 L 227.171875 47 L 202 47 Z M 202 14 "/>
</clipPath>
<clipPath id="clip-18">
<path clip-rule="nonzero" d="M 203 55 L 227.171875 55 L 227.171875 87 L 203 87 Z M 203 55 "/>
</clipPath>
<clipPath id="clip-19">
<path clip-rule="nonzero" d="M 15 119 L 48 119 L 48 142.132812 L 15 142.132812 Z M 15 119 "/>
</clipPath>
<clipPath id="clip-20">
<path clip-rule="nonzero" d="M 202 85 L 227.171875 85 L 227.171875 115 L 202 115 Z M 202 85 "/>
</clipPath>
<clipPath id="clip-21">
<path clip-rule="nonzero" d="M 25 118 L 58 118 L 58 142.132812 L 25 142.132812 Z M 25 118 "/>
</clipPath>
<clipPath id="clip-22">
<path clip-rule="nonzero" d="M 200 121 L 227.171875 121 L 227.171875 142.132812 L 200 142.132812 Z M 200 121 "/>
</clipPath>
<clipPath id="clip-23">
<path clip-rule="nonzero" d="M 206 116 L 227.171875 116 L 227.171875 142.132812 L 206 142.132812 Z M 206 116 "/>
</clipPath>
<clipPath id="clip-24">
<path clip-rule="nonzero" d="M 203 65 L 227.171875 65 L 227.171875 97 L 203 97 Z M 203 65 "/>
</clipPath>
<clipPath id="clip-25">
<path clip-rule="nonzero" d="M 202 26 L 227.171875 26 L 227.171875 57 L 202 57 Z M 202 26 "/>
</clipPath>
<clipPath id="clip-26">
<path clip-rule="nonzero" d="M 203 45 L 227.171875 45 L 227.171875 77 L 203 77 Z M 203 45 "/>
</clipPath>
<clipPath id="clip-27">
<path clip-rule="nonzero" d="M 200 0 L 227.171875 0 L 227.171875 21 L 200 21 Z M 200 0 "/>
</clipPath>
<clipPath id="clip-28">
<path clip-rule="nonzero" d="M 0 121 L 27 121 L 27 142.132812 L 0 142.132812 Z M 0 121 "/>
</clipPath>
<clipPath id="clip-29">
<path clip-rule="nonzero" d="M 206 0 L 227.171875 0 L 227.171875 27 L 206 27 Z M 206 0 "/>
</clipPath>
<clipPath id="clip-30">
<path clip-rule="nonzero" d="M 0 116 L 21 116 L 21 142.132812 L 0 142.132812 Z M 0 116 "/>
</clipPath>
<clipPath id="clip-31">
<path clip-rule="nonzero" d="M 207 75 L 227.171875 75 L 227.171875 108 L 207 108 Z M 207 75 "/>
</clipPath>
<clipPath id="clip-32">
<path clip-rule="nonzero" d="M 207 35 L 227.171875 35 L 227.171875 67 L 207 67 Z M 207 35 "/>
</clipPath>
<clipPath id="clip-33">
<path clip-rule="nonzero" d="M 9 119 L 38 119 L 38 142.132812 L 9 142.132812 Z M 9 119 "/>
</clipPath>
<clipPath id="clip-34">
<path clip-rule="nonzero" d="M 189 119 L 218 119 L 218 142.132812 L 189 142.132812 Z M 189 119 "/>
</clipPath>
<clipPath id="clip-35">
<path clip-rule="nonzero" d="M 202 9 L 227.171875 9 L 227.171875 39 L 202 39 Z M 202 9 "/>
</clipPath>
</defs>
<path fill="none" stroke-width="0.3985" stroke-linecap="butt" stroke-linejoin="miter" stroke="rgb(0%, 0%, 0%)" stroke-opacity="0.5" stroke-miterlimit="10" d="M 196.136937 89.228875 L 208.33225 109.299187 L 185.672094 106.795281 Z M 196.136937 89.228875 " transform="matrix(1, 0, 0, -1, 0.199, 141.932)"/>
<g clip-path="url(#clip-0)">
<path fill="none" stroke-width="0.3985" stroke-linecap="butt" stroke-linejoin="miter" stroke="rgb(0%, 0%, 0%)" stroke-opacity="0.5" stroke-miterlimit="10" d="M 226.773656 20.248406 L 226.773656 40.4945 L 207.523656 33.029656 Z M 226.773656 20.248406 " transform="matrix(1, 0, 0, -1, 0.199, 141.932)"/>
</g>
<path fill="none" stroke-width="0.3985" stroke-linecap="butt" stroke-linejoin="miter" stroke="rgb(0%, 0%, 0%)" stroke-opacity="0.5" stroke-miterlimit="10" d="M 30.566625 52.107781 L 18.558812 32.291375 L 40.949438 34.627312 Z M 30.566625 52.107781 " transform="matrix(1, 0, 0, -1, 0.199, 141.932)"/>
<g clip-path="url(#clip-1)">
<path fill="none" stroke-width="0.3985" stroke-linecap="butt" stroke-linejoin="miter" stroke="rgb(0%, 0%, 0%)" stroke-opacity="0.5" stroke-miterlimit="10" d="M 226.773656 20.248406 L 207.523656 33.029656 L 211.621312 15.057 Z M 226.773656 20.248406 " transform="matrix(1, 0, 0, -1, 0.199, 141.932)"/>
</g>
<path fill="none" stroke-width="0.3985" stroke-linecap="butt" stroke-linejoin="miter" stroke="rgb(0%, 0%, 0%)" stroke-opacity="0.5" stroke-miterlimit="10" d="M 208.33225 109.299187 L 196.136937 89.228875 L 213.281469 91.115594 Z M 208.33225 109.299187 " transform="matrix(1, 0, 0, -1, 0.199, 141.932)"/>
<path fill="none" stroke-width="0.3985" stroke-linecap="butt" stroke-linejoin="miter" stroke="rgb(0%, 0%, 0%)" stroke-opacity="0.5" stroke-miterlimit="10" d="M 208.640844 70.740594 L 185.840062 70.3695 L 195.246312 52.478875 Z M 208.640844 70.740594 " transform="matrix(1, 0, 0, -1, 0.199, 141.932)"/>
<path fill="none" stroke-width="0.3985" stroke-linecap="butt" stroke-linejoin="miter" stroke="rgb(0%, 0%, 0%)" stroke-opacity="0.5" stroke-miterlimit="10" d="M 18.558812 32.291375 L 30.566625 52.107781 L 13.45725 51.283562 Z M 18.558812 32.291375 " transform="matrix(1, 0, 0, -1, 0.199, 141.932)"/>
<path fill="none" stroke-width="0.3985" stroke-linecap="butt" stroke-linejoin="miter" stroke="rgb(0%, 0%, 0%)" stroke-opacity="0.5" stroke-miterlimit="10" d="M 185.840062 70.3695 L 208.640844 70.740594 L 196.136937 89.228875 Z M 185.840062 70.3695 " transform="matrix(1, 0, 0, -1, 0.199, 141.932)"/>
<path fill="none" stroke-width="0.3985" stroke-linecap="butt" stroke-linejoin="miter" stroke="rgb(0%, 0%, 0%)" stroke-opacity="0.5" stroke-miterlimit="10" d="M 40.297094 70.767937 L 18.160375 70.77575 L 30.566625 52.107781 Z M 40.297094 70.767937 " transform="matrix(1, 0, 0, -1, 0.199, 141.932)"/>
<path fill="none" stroke-width="0.3985" stroke-linecap="butt" stroke-linejoin="miter" stroke="rgb(0%, 0%, 0%)" stroke-opacity="0.5" stroke-miterlimit="10" d="M 18.160375 70.77575 L 40.297094 70.767937 L 29.629125 88.353875 Z M 18.160375 70.77575 " transform="matrix(1, 0, 0, -1, 0.199, 141.932)"/>
<path fill="none" stroke-width="0.3985" stroke-linecap="butt" stroke-linejoin="miter" stroke="rgb(0%, 0%, 0%)" stroke-opacity="0.5" stroke-miterlimit="10" d="M 185.672094 106.795281 L 208.33225 109.299187 L 195.441625 125.072625 Z M 185.672094 106.795281 " transform="matrix(1, 0, 0, -1, 0.199, 141.932)"/>
<path fill="none" stroke-width="0.3985" stroke-linecap="butt" stroke-linejoin="miter" stroke="rgb(0%, 0%, 0%)" stroke-opacity="0.5" stroke-miterlimit="10" d="M 0.00021875 121.486687 L 0.00021875 101.236687 L 18.437719 108.420281 Z M 0.00021875 121.486687 " transform="matrix(1, 0, 0, -1, 0.199, 141.932)"/>
<path fill="none" stroke-width="0.3985" stroke-linecap="butt" stroke-linejoin="miter" stroke="rgb(0%, 0%, 0%)" stroke-opacity="0.5" stroke-miterlimit="10" d="M 40.949438 34.627312 L 18.558812 32.291375 L 31.293187 16.58825 Z M 40.949438 34.627312 " transform="matrix(1, 0, 0, -1, 0.199, 141.932)"/>
<path fill="none" stroke-width="0.3985" stroke-linecap="butt" stroke-linejoin="miter" stroke="rgb(0%, 0%, 0%)" stroke-opacity="0.5" stroke-miterlimit="10" d="M 61.386938 106.131219 L 51.211156 123.849969 L 40.156469 106.201531 Z M 61.386938 106.131219 " transform="matrix(1, 0, 0, -1, 0.199, 141.932)"/>
<path fill="none" stroke-width="0.3985" stroke-linecap="butt" stroke-linejoin="miter" stroke="rgb(0%, 0%, 0%)" stroke-opacity="0.5" stroke-miterlimit="10" d="M 61.45725 70.662469 L 71.746313 88.396844 L 50.51975 88.553094 Z M 61.45725 70.662469 " transform="matrix(1, 0, 0, -1, 0.199, 141.932)"/>
<path fill="none" stroke-width="0.3985" stroke-linecap="butt" stroke-linejoin="miter" stroke="rgb(0%, 0%, 0%)" stroke-opacity="0.5" stroke-miterlimit="10" d="M 175.136937 88.053094 L 185.840062 70.3695 L 196.136937 89.228875 Z M 175.136937 88.053094 " transform="matrix(1, 0, 0, -1, 0.199, 141.932)"/>
<path fill="none" stroke-width="0.3985" stroke-linecap="butt" stroke-linejoin="miter" stroke="rgb(0%, 0%, 0%)" stroke-opacity="0.5" stroke-miterlimit="10" d="M 175.136937 88.053094 L 196.136937 89.228875 L 185.672094 106.795281 Z M 175.136937 88.053094 " transform="matrix(1, 0, 0, -1, 0.199, 141.932)"/>
<path fill="none" stroke-width="0.3985" stroke-linecap="butt" stroke-linejoin="miter" stroke="rgb(0%, 0%, 0%)" stroke-opacity="0.5" stroke-miterlimit="10" d="M 50.51975 88.553094 L 61.386938 106.131219 L 40.156469 106.201531 Z M 50.51975 88.553094 " transform="matrix(1, 0, 0, -1, 0.199, 141.932)"/>
<path fill="none" stroke-width="0.3985" stroke-linecap="butt" stroke-linejoin="miter" stroke="rgb(0%, 0%, 0%)" stroke-opacity="0.5" stroke-miterlimit="10" d="M 40.297094 70.767937 L 61.45725 70.662469 L 50.51975 88.553094 Z M 40.297094 70.767937 " transform="matrix(1, 0, 0, -1, 0.199, 141.932)"/>
<path fill="none" stroke-width="0.3985" stroke-linecap="butt" stroke-linejoin="miter" stroke="rgb(0%, 0%, 0%)" stroke-opacity="0.5" stroke-miterlimit="10" d="M 71.746313 88.396844 L 61.386938 106.131219 L 50.51975 88.553094 Z M 71.746313 88.396844 " transform="matrix(1, 0, 0, -1, 0.199, 141.932)"/>
<path fill="none" stroke-width="0.3985" stroke-linecap="butt" stroke-linejoin="miter" stroke="rgb(0%, 0%, 0%)" stroke-opacity="0.5" stroke-miterlimit="10" d="M 208.640844 70.740594 L 195.246312 52.478875 L 212.902562 51.248406 Z M 208.640844 70.740594 " transform="matrix(1, 0, 0, -1, 0.199, 141.932)"/>
<path fill="none" stroke-width="0.3985" stroke-linecap="butt" stroke-linejoin="miter" stroke="rgb(0%, 0%, 0%)" stroke-opacity="0.5" stroke-miterlimit="10" d="M 0.00021875 121.486687 L 18.437719 108.420281 L 15.152563 126.678094 Z M 0.00021875 121.486687 " transform="matrix(1, 0, 0, -1, 0.199, 141.932)"/>
<path fill="none" stroke-width="0.3985" stroke-linecap="butt" stroke-linejoin="miter" stroke="rgb(0%, 0%, 0%)" stroke-opacity="0.5" stroke-miterlimit="10" d="M 185.672094 106.795281 L 175.015844 123.896844 L 164.804906 106.084344 Z M 185.672094 106.795281 " transform="matrix(1, 0, 0, -1, 0.199, 141.932)"/>
<path fill="none" stroke-width="0.3985" stroke-linecap="butt" stroke-linejoin="miter" stroke="rgb(0%, 0%, 0%)" stroke-opacity="0.5" stroke-miterlimit="10" d="M 29.629125 88.353875 L 40.297094 70.767937 L 50.51975 88.553094 Z M 29.629125 88.353875 " transform="matrix(1, 0, 0, -1, 0.199, 141.932)"/>
<path fill="none" stroke-width="0.3985" stroke-linecap="butt" stroke-linejoin="miter" stroke="rgb(0%, 0%, 0%)" stroke-opacity="0.5" stroke-miterlimit="10" d="M 51.211156 123.849969 L 30.922094 123.881219 L 40.156469 106.201531 Z M 51.211156 123.849969 " transform="matrix(1, 0, 0, -1, 0.199, 141.932)"/>
<path fill="none" stroke-width="0.3985" stroke-linecap="butt" stroke-linejoin="miter" stroke="rgb(0%, 0%, 0%)" stroke-opacity="0.5" stroke-miterlimit="10" d="M 175.136937 88.053094 L 185.672094 106.795281 L 164.804906 106.084344 Z M 175.136937 88.053094 " transform="matrix(1, 0, 0, -1, 0.199, 141.932)"/>
<path fill="none" stroke-width="0.3985" stroke-linecap="butt" stroke-linejoin="miter" stroke="rgb(0%, 0%, 0%)" stroke-opacity="0.5" stroke-miterlimit="10" d="M 29.629125 88.353875 L 40.156469 106.201531 L 18.437719 108.420281 Z M 29.629125 88.353875 " transform="matrix(1, 0, 0, -1, 0.199, 141.932)"/>
<path fill="none" stroke-width="0.3985" stroke-linecap="butt" stroke-linejoin="miter" stroke="rgb(0%, 0%, 0%)" stroke-opacity="0.5" stroke-miterlimit="10" d="M 164.804906 106.084344 L 175.015844 123.896844 L 154.51975 123.8695 Z M 164.804906 106.084344 " transform="matrix(1, 0, 0, -1, 0.199, 141.932)"/>
<path fill="none" stroke-width="0.3985" stroke-linecap="butt" stroke-linejoin="miter" stroke="rgb(0%, 0%, 0%)" stroke-opacity="0.5" stroke-miterlimit="10" d="M 72.183813 17.756219 L 82.472875 35.447625 L 61.625219 35.33825 Z M 72.183813 17.756219 " transform="matrix(1, 0, 0, -1, 0.199, 141.932)"/>
<path fill="none" stroke-width="0.3985" stroke-linecap="butt" stroke-linejoin="miter" stroke="rgb(0%, 0%, 0%)" stroke-opacity="0.5" stroke-miterlimit="10" d="M 164.804906 106.084344 L 154.51975 123.8695 L 144.140844 105.998406 Z M 164.804906 106.084344 " transform="matrix(1, 0, 0, -1, 0.199, 141.932)"/>
<path fill="none" stroke-width="0.3985" stroke-linecap="butt" stroke-linejoin="miter" stroke="rgb(0%, 0%, 0%)" stroke-opacity="0.5" stroke-miterlimit="10" d="M 123.508031 105.974969 L 133.972875 123.865594 L 113.308813 123.865594 Z M 123.508031 105.974969 " transform="matrix(1, 0, 0, -1, 0.199, 141.932)"/>
<path fill="none" stroke-width="0.3985" stroke-linecap="butt" stroke-linejoin="miter" stroke="rgb(0%, 0%, 0%)" stroke-opacity="0.5" stroke-miterlimit="10" d="M 154.51975 123.8695 L 133.972875 123.865594 L 144.140844 105.998406 Z M 154.51975 123.8695 " transform="matrix(1, 0, 0, -1, 0.199, 141.932)"/>
<g clip-path="url(#clip-2)">
<path fill="none" stroke-width="0.3985" stroke-linecap="butt" stroke-linejoin="miter" stroke="rgb(0%, 0%, 0%)" stroke-opacity="0.5" stroke-miterlimit="10" d="M 185.543187 -0.00159375 L 194.672094 17.252312 L 174.95725 17.576531 Z M 185.543187 -0.00159375 " transform="matrix(1, 0, 0, -1, 0.199, 141.932)"/>
</g>
<path fill="none" stroke-width="0.3985" stroke-linecap="butt" stroke-linejoin="miter" stroke="rgb(0%, 0%, 0%)" stroke-opacity="0.5" stroke-miterlimit="10" d="M 30.566625 52.107781 L 18.160375 70.77575 L 13.45725 51.283562 Z M 30.566625 52.107781 " transform="matrix(1, 0, 0, -1, 0.199, 141.932)"/>
<path fill="none" stroke-width="0.3985" stroke-linecap="butt" stroke-linejoin="miter" stroke="rgb(0%, 0%, 0%)" stroke-opacity="0.5" stroke-miterlimit="10" d="M 72.117406 123.885125 L 51.211156 123.849969 L 61.386938 106.131219 Z M 72.117406 123.885125 " transform="matrix(1, 0, 0, -1, 0.199, 141.932)"/>
<path fill="none" stroke-width="0.3985" stroke-linecap="butt" stroke-linejoin="miter" stroke="rgb(0%, 0%, 0%)" stroke-opacity="0.5" stroke-miterlimit="10" d="M 133.972875 123.865594 L 123.508031 105.974969 L 144.140844 105.998406 Z M 133.972875 123.865594 " transform="matrix(1, 0, 0, -1, 0.199, 141.932)"/>
<path fill="none" stroke-width="0.3985" stroke-linecap="butt" stroke-linejoin="miter" stroke="rgb(0%, 0%, 0%)" stroke-opacity="0.5" stroke-miterlimit="10" d="M 103.078344 141.732781 L 82.465063 141.732781 L 92.70725 123.83825 Z M 103.078344 141.732781 " transform="matrix(1, 0, 0, -1, 0.199, 141.932)"/>
<path fill="none" stroke-width="0.3985" stroke-linecap="butt" stroke-linejoin="miter" stroke="rgb(0%, 0%, 0%)" stroke-opacity="0.5" stroke-miterlimit="10" d="M 175.015844 123.896844 L 164.926 141.732781 L 154.51975 123.8695 Z M 175.015844 123.896844 " transform="matrix(1, 0, 0, -1, 0.199, 141.932)"/>
<path fill="none" stroke-width="0.3985" stroke-linecap="butt" stroke-linejoin="miter" stroke="rgb(0%, 0%, 0%)" stroke-opacity="0.5" stroke-miterlimit="10" d="M 72.117406 123.885125 L 61.847875 141.732781 L 51.211156 123.849969 Z M 72.117406 123.885125 " transform="matrix(1, 0, 0, -1, 0.199, 141.932)"/>
<path fill="none" stroke-width="0.3985" stroke-linecap="butt" stroke-linejoin="miter" stroke="rgb(0%, 0%, 0%)" stroke-opacity="0.5" stroke-miterlimit="10" d="M 164.926 141.732781 L 144.312719 141.732781 L 154.51975 123.8695 Z M 164.926 141.732781 " transform="matrix(1, 0, 0, -1, 0.199, 141.932)"/>
<path fill="none" stroke-width="0.3985" stroke-linecap="butt" stroke-linejoin="miter" stroke="rgb(0%, 0%, 0%)" stroke-opacity="0.5" stroke-miterlimit="10" d="M 133.914281 17.693719 L 144.109594 35.252312 L 123.406469 35.346062 Z M 133.914281 17.693719 " transform="matrix(1, 0, 0, -1, 0.199, 141.932)"/>
<path fill="none" stroke-width="0.3985" stroke-linecap="butt" stroke-linejoin="miter" stroke="rgb(0%, 0%, 0%)" stroke-opacity="0.5" stroke-miterlimit="10" d="M 133.972875 123.865594 L 123.695531 141.732781 L 113.308813 123.865594 Z M 133.972875 123.865594 " transform="matrix(1, 0, 0, -1, 0.199, 141.932)"/>
<path fill="none" stroke-width="0.3985" stroke-linecap="butt" stroke-linejoin="miter" stroke="rgb(0%, 0%, 0%)" stroke-opacity="0.5" stroke-miterlimit="10" d="M 175.136937 88.053094 L 164.551 70.260125 L 185.840062 70.3695 Z M 175.136937 88.053094 " transform="matrix(1, 0, 0, -1, 0.199, 141.932)"/>
<path fill="none" stroke-width="0.3985" stroke-linecap="butt" stroke-linejoin="miter" stroke="rgb(0%, 0%, 0%)" stroke-opacity="0.5" stroke-miterlimit="10" d="M 51.390844 52.932 L 61.45725 70.662469 L 40.297094 70.767937 Z M 51.390844 52.932 " transform="matrix(1, 0, 0, -1, 0.199, 141.932)"/>
<path fill="none" stroke-width="0.3985" stroke-linecap="butt" stroke-linejoin="miter" stroke="rgb(0%, 0%, 0%)" stroke-opacity="0.5" stroke-miterlimit="10" d="M 51.390844 52.932 L 40.297094 70.767937 L 30.566625 52.107781 Z M 51.390844 52.932 " transform="matrix(1, 0, 0, -1, 0.199, 141.932)"/>
<path fill="none" stroke-width="0.3985" stroke-linecap="butt" stroke-linejoin="miter" stroke="rgb(0%, 0%, 0%)" stroke-opacity="0.5" stroke-miterlimit="10" d="M 143.992406 70.295281 L 133.70725 52.799187 L 154.422094 52.689812 Z M 143.992406 70.295281 " transform="matrix(1, 0, 0, -1, 0.199, 141.932)"/>
<path fill="none" stroke-width="0.3985" stroke-linecap="butt" stroke-linejoin="miter" stroke="rgb(0%, 0%, 0%)" stroke-opacity="0.5" stroke-miterlimit="10" d="M 154.308812 88.060906 L 164.551 70.260125 L 175.136937 88.053094 Z M 154.308812 88.060906 " transform="matrix(1, 0, 0, -1, 0.199, 141.932)"/>
<path fill="none" stroke-width="0.3985" stroke-linecap="butt" stroke-linejoin="miter" stroke="rgb(0%, 0%, 0%)" stroke-opacity="0.5" stroke-miterlimit="10" d="M 41.230688 141.732781 L 20.617406 141.732781 L 30.922094 123.881219 Z M 41.230688 141.732781 " transform="matrix(1, 0, 0, -1, 0.199, 141.932)"/>
<g clip-path="url(#clip-3)">
<path fill="none" stroke-width="0.3985" stroke-linecap="butt" stroke-linejoin="miter" stroke="rgb(0%, 0%, 0%)" stroke-opacity="0.5" stroke-miterlimit="10" d="M 185.543187 -0.00159375 L 206.156469 -0.00159375 L 194.672094 17.252312 Z M 185.543187 -0.00159375 " transform="matrix(1, 0, 0, -1, 0.199, 141.932)"/>
</g>
<g clip-path="url(#clip-4)">
<path fill="none" stroke-width="0.3985" stroke-linecap="butt" stroke-linejoin="miter" stroke="rgb(0%, 0%, 0%)" stroke-opacity="0.5" stroke-miterlimit="10" d="M 51.539281 17.853875 L 61.847875 -0.00159375 L 72.183813 17.756219 Z M 51.539281 17.853875 " transform="matrix(1, 0, 0, -1, 0.199, 141.932)"/>
</g>
<path fill="none" stroke-width="0.3985" stroke-linecap="butt" stroke-linejoin="miter" stroke="rgb(0%, 0%, 0%)" stroke-opacity="0.5" stroke-miterlimit="10" d="M 41.230688 141.732781 L 30.922094 123.881219 L 51.211156 123.849969 Z M 41.230688 141.732781 " transform="matrix(1, 0, 0, -1, 0.199, 141.932)"/>
<path fill="none" stroke-width="0.3985" stroke-linecap="butt" stroke-linejoin="miter" stroke="rgb(0%, 0%, 0%)" stroke-opacity="0.5" stroke-miterlimit="10" d="M 144.312719 141.732781 L 133.972875 123.865594 L 154.51975 123.8695 Z M 144.312719 141.732781 " transform="matrix(1, 0, 0, -1, 0.199, 141.932)"/>
<path fill="none" stroke-width="0.3985" stroke-linecap="butt" stroke-linejoin="miter" stroke="rgb(0%, 0%, 0%)" stroke-opacity="0.5" stroke-miterlimit="10" d="M 185.840062 70.3695 L 174.9885 52.658562 L 195.246312 52.478875 Z M 185.840062 70.3695 " transform="matrix(1, 0, 0, -1, 0.199, 141.932)"/>
<path fill="none" stroke-width="0.3985" stroke-linecap="butt" stroke-linejoin="miter" stroke="rgb(0%, 0%, 0%)" stroke-opacity="0.5" stroke-miterlimit="10" d="M 154.308812 88.060906 L 143.992406 70.295281 L 164.551 70.260125 Z M 154.308812 88.060906 " transform="matrix(1, 0, 0, -1, 0.199, 141.932)"/>
<g clip-path="url(#clip-5)">
<path fill="none" stroke-width="0.3985" stroke-linecap="butt" stroke-linejoin="miter" stroke="rgb(0%, 0%, 0%)" stroke-opacity="0.5" stroke-miterlimit="10" d="M 154.617406 17.853875 L 164.926 -0.00159375 L 174.95725 17.576531 Z M 154.617406 17.853875 " transform="matrix(1, 0, 0, -1, 0.199, 141.932)"/>
</g>
<path fill="none" stroke-width="0.3985" stroke-linecap="butt" stroke-linejoin="miter" stroke="rgb(0%, 0%, 0%)" stroke-opacity="0.5" stroke-miterlimit="10" d="M 103.078344 141.732781 L 92.70725 123.83825 L 113.308813 123.865594 Z M 103.078344 141.732781 " transform="matrix(1, 0, 0, -1, 0.199, 141.932)"/>
<path fill="none" stroke-width="0.3985" stroke-linecap="butt" stroke-linejoin="miter" stroke="rgb(0%, 0%, 0%)" stroke-opacity="0.5" stroke-miterlimit="10" d="M 71.996313 52.990594 L 61.45725 70.662469 L 51.390844 52.932 Z M 71.996313 52.990594 " transform="matrix(1, 0, 0, -1, 0.199, 141.932)"/>
<g clip-path="url(#clip-6)">
<path fill="none" stroke-width="0.3985" stroke-linecap="butt" stroke-linejoin="miter" stroke="rgb(0%, 0%, 0%)" stroke-opacity="0.5" stroke-miterlimit="10" d="M 41.230688 -0.00159375 L 61.847875 -0.00159375 L 51.539281 17.853875 Z M 41.230688 -0.00159375 " transform="matrix(1, 0, 0, -1, 0.199, 141.932)"/>
</g>
<path fill="none" stroke-width="0.3985" stroke-linecap="butt" stroke-linejoin="miter" stroke="rgb(0%, 0%, 0%)" stroke-opacity="0.5" stroke-miterlimit="10" d="M 185.543187 141.732781 L 164.926 141.732781 L 175.015844 123.896844 Z M 185.543187 141.732781 " transform="matrix(1, 0, 0, -1, 0.199, 141.932)"/>
<g clip-path="url(#clip-7)">
<path fill="none" stroke-width="0.3985" stroke-linecap="butt" stroke-linejoin="miter" stroke="rgb(0%, 0%, 0%)" stroke-opacity="0.5" stroke-miterlimit="10" d="M 144.312719 -0.00159375 L 154.617406 17.853875 L 133.914281 17.693719 Z M 144.312719 -0.00159375 " transform="matrix(1, 0, 0, -1, 0.199, 141.932)"/>
</g>
<path fill="none" stroke-width="0.3985" stroke-linecap="butt" stroke-linejoin="miter" stroke="rgb(0%, 0%, 0%)" stroke-opacity="0.5" stroke-miterlimit="10" d="M 82.465063 141.732781 L 72.117406 123.885125 L 92.70725 123.83825 Z M 82.465063 141.732781 " transform="matrix(1, 0, 0, -1, 0.199, 141.932)"/>
<g clip-path="url(#clip-8)">
<path fill="none" stroke-width="0.3985" stroke-linecap="butt" stroke-linejoin="miter" stroke="rgb(0%, 0%, 0%)" stroke-opacity="0.5" stroke-miterlimit="10" d="M 164.926 -0.00159375 L 185.543187 -0.00159375 L 174.95725 17.576531 Z M 164.926 -0.00159375 " transform="matrix(1, 0, 0, -1, 0.199, 141.932)"/>
</g>
<path fill="none" stroke-width="0.3985" stroke-linecap="butt" stroke-linejoin="miter" stroke="rgb(0%, 0%, 0%)" stroke-opacity="0.5" stroke-miterlimit="10" d="M 82.211156 70.557 L 71.746313 88.396844 L 61.45725 70.662469 Z M 82.211156 70.557 " transform="matrix(1, 0, 0, -1, 0.199, 141.932)"/>
<path fill="none" stroke-width="0.3985" stroke-linecap="butt" stroke-linejoin="miter" stroke="rgb(0%, 0%, 0%)" stroke-opacity="0.5" stroke-miterlimit="10" d="M 123.508031 105.974969 L 113.308813 123.865594 L 102.922094 105.974969 Z M 123.508031 105.974969 " transform="matrix(1, 0, 0, -1, 0.199, 141.932)"/>
<path fill="none" stroke-width="0.3985" stroke-linecap="butt" stroke-linejoin="miter" stroke="rgb(0%, 0%, 0%)" stroke-opacity="0.5" stroke-miterlimit="10" d="M 82.465063 141.732781 L 61.847875 141.732781 L 72.117406 123.885125 Z M 82.465063 141.732781 " transform="matrix(1, 0, 0, -1, 0.199, 141.932)"/>
<g clip-path="url(#clip-9)">
<path fill="none" stroke-width="0.3985" stroke-linecap="butt" stroke-linejoin="miter" stroke="rgb(0%, 0%, 0%)" stroke-opacity="0.5" stroke-miterlimit="10" d="M 144.312719 -0.00159375 L 164.926 -0.00159375 L 154.617406 17.853875 Z M 144.312719 -0.00159375 " transform="matrix(1, 0, 0, -1, 0.199, 141.932)"/>
</g>
<path fill="none" stroke-width="0.3985" stroke-linecap="butt" stroke-linejoin="miter" stroke="rgb(0%, 0%, 0%)" stroke-opacity="0.5" stroke-miterlimit="10" d="M 113.308813 123.865594 L 92.70725 123.83825 L 102.922094 105.974969 Z M 113.308813 123.865594 " transform="matrix(1, 0, 0, -1, 0.199, 141.932)"/>
<path fill="none" stroke-width="0.3985" stroke-linecap="butt" stroke-linejoin="miter" stroke="rgb(0%, 0%, 0%)" stroke-opacity="0.5" stroke-miterlimit="10" d="M 72.117406 123.885125 L 61.386938 106.131219 L 82.297094 106.045281 Z M 72.117406 123.885125 " transform="matrix(1, 0, 0, -1, 0.199, 141.932)"/>
<path fill="none" stroke-width="0.3985" stroke-linecap="butt" stroke-linejoin="miter" stroke="rgb(0%, 0%, 0%)" stroke-opacity="0.5" stroke-miterlimit="10" d="M 123.695531 141.732781 L 103.078344 141.732781 L 113.308813 123.865594 Z M 123.695531 141.732781 " transform="matrix(1, 0, 0, -1, 0.199, 141.932)"/>
<path fill="none" stroke-width="0.3985" stroke-linecap="butt" stroke-linejoin="miter" stroke="rgb(0%, 0%, 0%)" stroke-opacity="0.5" stroke-miterlimit="10" d="M 185.840062 70.3695 L 164.551 70.260125 L 174.9885 52.658562 Z M 185.840062 70.3695 " transform="matrix(1, 0, 0, -1, 0.199, 141.932)"/>
<path fill="none" stroke-width="0.3985" stroke-linecap="butt" stroke-linejoin="miter" stroke="rgb(0%, 0%, 0%)" stroke-opacity="0.5" stroke-miterlimit="10" d="M 61.847875 141.732781 L 41.230688 141.732781 L 51.211156 123.849969 Z M 61.847875 141.732781 " transform="matrix(1, 0, 0, -1, 0.199, 141.932)"/>
<path fill="none" stroke-width="0.3985" stroke-linecap="butt" stroke-linejoin="miter" stroke="rgb(0%, 0%, 0%)" stroke-opacity="0.5" stroke-miterlimit="10" d="M 92.828344 17.822625 L 113.293188 17.767937 L 102.937719 35.459344 Z M 92.828344 17.822625 " transform="matrix(1, 0, 0, -1, 0.199, 141.932)"/>
<g clip-path="url(#clip-10)">
<path fill="none" stroke-width="0.3985" stroke-linecap="butt" stroke-linejoin="miter" stroke="rgb(0%, 0%, 0%)" stroke-opacity="0.5" stroke-miterlimit="10" d="M 82.465063 -0.00159375 L 92.828344 17.822625 L 72.183813 17.756219 Z M 82.465063 -0.00159375 " transform="matrix(1, 0, 0, -1, 0.199, 141.932)"/>
</g>
<g clip-path="url(#clip-11)">
<path fill="none" stroke-width="0.3985" stroke-linecap="butt" stroke-linejoin="miter" stroke="rgb(0%, 0%, 0%)" stroke-opacity="0.5" stroke-miterlimit="10" d="M 61.847875 -0.00159375 L 82.465063 -0.00159375 L 72.183813 17.756219 Z M 61.847875 -0.00159375 " transform="matrix(1, 0, 0, -1, 0.199, 141.932)"/>
</g>
<path fill="none" stroke-width="0.3985" stroke-linecap="butt" stroke-linejoin="miter" stroke="rgb(0%, 0%, 0%)" stroke-opacity="0.5" stroke-miterlimit="10" d="M 133.7385 88.135125 L 143.992406 70.295281 L 154.308812 88.060906 Z M 133.7385 88.135125 " transform="matrix(1, 0, 0, -1, 0.199, 141.932)"/>
<g clip-path="url(#clip-12)">
<path fill="none" stroke-width="0.3985" stroke-linecap="butt" stroke-linejoin="miter" stroke="rgb(0%, 0%, 0%)" stroke-opacity="0.5" stroke-miterlimit="10" d="M 123.695531 -0.00159375 L 144.312719 -0.00159375 L 133.914281 17.693719 Z M 123.695531 -0.00159375 " transform="matrix(1, 0, 0, -1, 0.199, 141.932)"/>
</g>
<g clip-path="url(#clip-13)">
<path fill="none" stroke-width="0.3985" stroke-linecap="butt" stroke-linejoin="miter" stroke="rgb(0%, 0%, 0%)" stroke-opacity="0.5" stroke-miterlimit="10" d="M 92.828344 17.822625 L 103.078344 -0.00159375 L 113.293188 17.767937 Z M 92.828344 17.822625 " transform="matrix(1, 0, 0, -1, 0.199, 141.932)"/>
</g>
<path fill="none" stroke-width="0.3985" stroke-linecap="butt" stroke-linejoin="miter" stroke="rgb(0%, 0%, 0%)" stroke-opacity="0.5" stroke-miterlimit="10" d="M 82.297094 106.045281 L 61.386938 106.131219 L 71.746313 88.396844 Z M 82.297094 106.045281 " transform="matrix(1, 0, 0, -1, 0.199, 141.932)"/>
<path fill="none" stroke-width="0.3985" stroke-linecap="butt" stroke-linejoin="miter" stroke="rgb(0%, 0%, 0%)" stroke-opacity="0.5" stroke-miterlimit="10" d="M 133.7385 88.135125 L 123.406469 70.432 L 143.992406 70.295281 Z M 133.7385 88.135125 " transform="matrix(1, 0, 0, -1, 0.199, 141.932)"/>
<g clip-path="url(#clip-14)">
<path fill="none" stroke-width="0.3985" stroke-linecap="butt" stroke-linejoin="miter" stroke="rgb(0%, 0%, 0%)" stroke-opacity="0.5" stroke-miterlimit="10" d="M 123.695531 -0.00159375 L 133.914281 17.693719 L 113.293188 17.767937 Z M 123.695531 -0.00159375 " transform="matrix(1, 0, 0, -1, 0.199, 141.932)"/>
</g>
<path fill="none" stroke-width="0.3985" stroke-linecap="butt" stroke-linejoin="miter" stroke="rgb(0%, 0%, 0%)" stroke-opacity="0.5" stroke-miterlimit="10" d="M 164.551 70.260125 L 143.992406 70.295281 L 154.422094 52.689812 Z M 164.551 70.260125 " transform="matrix(1, 0, 0, -1, 0.199, 141.932)"/>
<path fill="none" stroke-width="0.3985" stroke-linecap="butt" stroke-linejoin="miter" stroke="rgb(0%, 0%, 0%)" stroke-opacity="0.5" stroke-miterlimit="10" d="M 143.992406 70.295281 L 123.406469 70.432 L 133.70725 52.799187 Z M 143.992406 70.295281 " transform="matrix(1, 0, 0, -1, 0.199, 141.932)"/>
<path fill="none" stroke-width="0.3985" stroke-linecap="butt" stroke-linejoin="miter" stroke="rgb(0%, 0%, 0%)" stroke-opacity="0.5" stroke-miterlimit="10" d="M 82.211156 70.557 L 61.45725 70.662469 L 71.996313 52.990594 Z M 82.211156 70.557 " transform="matrix(1, 0, 0, -1, 0.199, 141.932)"/>
<g clip-path="url(#clip-15)">
<path fill="none" stroke-width="0.3985" stroke-linecap="butt" stroke-linejoin="miter" stroke="rgb(0%, 0%, 0%)" stroke-opacity="0.5" stroke-miterlimit="10" d="M 103.078344 -0.00159375 L 123.695531 -0.00159375 L 113.293188 17.767937 Z M 103.078344 -0.00159375 " transform="matrix(1, 0, 0, -1, 0.199, 141.932)"/>
</g>
<g clip-path="url(#clip-16)">
<path fill="none" stroke-width="0.3985" stroke-linecap="butt" stroke-linejoin="miter" stroke="rgb(0%, 0%, 0%)" stroke-opacity="0.5" stroke-miterlimit="10" d="M 82.465063 -0.00159375 L 103.078344 -0.00159375 L 92.828344 17.822625 Z M 82.465063 -0.00159375 " transform="matrix(1, 0, 0, -1, 0.199, 141.932)"/>
</g>
<path fill="none" stroke-width="0.3985" stroke-linecap="butt" stroke-linejoin="miter" stroke="rgb(0%, 0%, 0%)" stroke-opacity="0.5" stroke-miterlimit="10" d="M 144.312719 141.732781 L 123.695531 141.732781 L 133.972875 123.865594 Z M 144.312719 141.732781 " transform="matrix(1, 0, 0, -1, 0.199, 141.932)"/>
<path fill="none" stroke-width="0.3985" stroke-linecap="butt" stroke-linejoin="miter" stroke="rgb(0%, 0%, 0%)" stroke-opacity="0.5" stroke-miterlimit="10" d="M 154.308812 88.060906 L 175.136937 88.053094 L 164.804906 106.084344 Z M 154.308812 88.060906 " transform="matrix(1, 0, 0, -1, 0.199, 141.932)"/>
<path fill="none" stroke-width="0.3985" stroke-linecap="butt" stroke-linejoin="miter" stroke="rgb(0%, 0%, 0%)" stroke-opacity="0.5" stroke-miterlimit="10" d="M 133.7385 88.135125 L 154.308812 88.060906 L 144.140844 105.998406 Z M 133.7385 88.135125 " transform="matrix(1, 0, 0, -1, 0.199, 141.932)"/>
<path fill="none" stroke-width="0.3985" stroke-linecap="butt" stroke-linejoin="miter" stroke="rgb(0%, 0%, 0%)" stroke-opacity="0.5" stroke-miterlimit="10" d="M 113.156469 88.174187 L 123.406469 70.432 L 133.7385 88.135125 Z M 113.156469 88.174187 " transform="matrix(1, 0, 0, -1, 0.199, 141.932)"/>
<path fill="none" stroke-width="0.3985" stroke-linecap="butt" stroke-linejoin="miter" stroke="rgb(0%, 0%, 0%)" stroke-opacity="0.5" stroke-miterlimit="10" d="M 92.539281 88.232781 L 82.211156 70.557 L 102.828344 70.432 Z M 92.539281 88.232781 " transform="matrix(1, 0, 0, -1, 0.199, 141.932)"/>
<path fill="none" stroke-width="0.3985" stroke-linecap="butt" stroke-linejoin="miter" stroke="rgb(0%, 0%, 0%)" stroke-opacity="0.5" stroke-miterlimit="10" d="M 82.472875 35.447625 L 71.996313 52.990594 L 61.625219 35.33825 Z M 82.472875 35.447625 " transform="matrix(1, 0, 0, -1, 0.199, 141.932)"/>
<path fill="none" stroke-width="0.3985" stroke-linecap="butt" stroke-linejoin="miter" stroke="rgb(0%, 0%, 0%)" stroke-opacity="0.5" stroke-miterlimit="10" d="M 113.156469 88.174187 L 102.828344 70.432 L 123.406469 70.432 Z M 113.156469 88.174187 " transform="matrix(1, 0, 0, -1, 0.199, 141.932)"/>
<path fill="none" stroke-width="0.3985" stroke-linecap="butt" stroke-linejoin="miter" stroke="rgb(0%, 0%, 0%)" stroke-opacity="0.5" stroke-miterlimit="10" d="M 92.539281 88.232781 L 102.828344 70.432 L 113.156469 88.174187 Z M 92.539281 88.232781 " transform="matrix(1, 0, 0, -1, 0.199, 141.932)"/>
<path fill="none" stroke-width="0.3985" stroke-linecap="butt" stroke-linejoin="miter" stroke="rgb(0%, 0%, 0%)" stroke-opacity="0.5" stroke-miterlimit="10" d="M 113.156469 88.174187 L 133.7385 88.135125 L 123.508031 105.974969 Z M 113.156469 88.174187 " transform="matrix(1, 0, 0, -1, 0.199, 141.932)"/>
<path fill="none" stroke-width="0.3985" stroke-linecap="butt" stroke-linejoin="miter" stroke="rgb(0%, 0%, 0%)" stroke-opacity="0.5" stroke-miterlimit="10" d="M 82.297094 106.045281 L 71.746313 88.396844 L 92.539281 88.232781 Z M 82.297094 106.045281 " transform="matrix(1, 0, 0, -1, 0.199, 141.932)"/>
<path fill="none" stroke-width="0.3985" stroke-linecap="butt" stroke-linejoin="miter" stroke="rgb(0%, 0%, 0%)" stroke-opacity="0.5" stroke-miterlimit="10" d="M 92.539281 88.232781 L 71.746313 88.396844 L 82.211156 70.557 Z M 92.539281 88.232781 " transform="matrix(1, 0, 0, -1, 0.199, 141.932)"/>
<path fill="none" stroke-width="0.3985" stroke-linecap="butt" stroke-linejoin="miter" stroke="rgb(0%, 0%, 0%)" stroke-opacity="0.5" stroke-miterlimit="10" d="M 123.508031 105.974969 L 133.7385 88.135125 L 144.140844 105.998406 Z M 123.508031 105.974969 " transform="matrix(1, 0, 0, -1, 0.199, 141.932)"/>
<path fill="none" stroke-width="0.3985" stroke-linecap="butt" stroke-linejoin="miter" stroke="rgb(0%, 0%, 0%)" stroke-opacity="0.5" stroke-miterlimit="10" d="M 72.117406 123.885125 L 82.297094 106.045281 L 92.70725 123.83825 Z M 72.117406 123.885125 " transform="matrix(1, 0, 0, -1, 0.199, 141.932)"/>
<path fill="none" stroke-width="0.3985" stroke-linecap="butt" stroke-linejoin="miter" stroke="rgb(0%, 0%, 0%)" stroke-opacity="0.5" stroke-miterlimit="10" d="M 154.308812 88.060906 L 164.804906 106.084344 L 144.140844 105.998406 Z M 154.308812 88.060906 " transform="matrix(1, 0, 0, -1, 0.199, 141.932)"/>
<path fill="none" stroke-width="0.3985" stroke-linecap="butt" stroke-linejoin="miter" stroke="rgb(0%, 0%, 0%)" stroke-opacity="0.5" stroke-miterlimit="10" d="M 144.109594 35.252312 L 133.70725 52.799187 L 123.406469 35.346062 Z M 144.109594 35.252312 " transform="matrix(1, 0, 0, -1, 0.199, 141.932)"/>
<path fill="none" stroke-width="0.3985" stroke-linecap="butt" stroke-linejoin="miter" stroke="rgb(0%, 0%, 0%)" stroke-opacity="0.5" stroke-miterlimit="10" d="M 82.297094 106.045281 L 92.539281 88.232781 L 102.922094 105.974969 Z M 82.297094 106.045281 " transform="matrix(1, 0, 0, -1, 0.199, 141.932)"/>
<path fill="none" stroke-width="0.3985" stroke-linecap="butt" stroke-linejoin="miter" stroke="rgb(0%, 0%, 0%)" stroke-opacity="0.5" stroke-miterlimit="10" d="M 92.70725 123.83825 L 82.297094 106.045281 L 102.922094 105.974969 Z M 92.70725 123.83825 " transform="matrix(1, 0, 0, -1, 0.199, 141.932)"/>
<path fill="none" stroke-width="0.3985" stroke-linecap="butt" stroke-linejoin="miter" stroke="rgb(0%, 0%, 0%)" stroke-opacity="0.5" stroke-miterlimit="10" d="M 174.9885 52.658562 L 164.551 70.260125 L 154.422094 52.689812 Z M 174.9885 52.658562 " transform="matrix(1, 0, 0, -1, 0.199, 141.932)"/>
<path fill="none" stroke-width="0.3985" stroke-linecap="butt" stroke-linejoin="miter" stroke="rgb(0%, 0%, 0%)" stroke-opacity="0.5" stroke-miterlimit="10" d="M 113.156469 88.174187 L 123.508031 105.974969 L 102.922094 105.974969 Z M 113.156469 88.174187 " transform="matrix(1, 0, 0, -1, 0.199, 141.932)"/>
<path fill="none" stroke-width="0.3985" stroke-linecap="butt" stroke-linejoin="miter" stroke="rgb(0%, 0%, 0%)" stroke-opacity="0.5" stroke-miterlimit="10" d="M 92.539281 88.232781 L 113.156469 88.174187 L 102.922094 105.974969 Z M 92.539281 88.232781 " transform="matrix(1, 0, 0, -1, 0.199, 141.932)"/>
<g clip-path="url(#clip-17)">
<path fill="none" stroke-width="0.3985" stroke-linecap="butt" stroke-linejoin="miter" stroke="rgb(0%, 0%, 0%)" stroke-opacity="0.5" stroke-miterlimit="10" d="M 226.773656 101.236687 L 226.773656 121.486687 L 208.33225 109.299187 Z M 226.773656 101.236687 " transform="matrix(1, 0, 0, -1, 0.199, 141.932)"/>
</g>
<path fill="none" stroke-width="0.3985" stroke-linecap="butt" stroke-linejoin="miter" stroke="rgb(0%, 0%, 0%)" stroke-opacity="0.5" stroke-miterlimit="10" d="M 0.00021875 40.4945 L 0.00021875 20.248406 L 18.558812 32.291375 Z M 0.00021875 40.4945 " transform="matrix(1, 0, 0, -1, 0.199, 141.932)"/>
<g clip-path="url(#clip-18)">
<path fill="none" stroke-width="0.3985" stroke-linecap="butt" stroke-linejoin="miter" stroke="rgb(0%, 0%, 0%)" stroke-opacity="0.5" stroke-miterlimit="10" d="M 226.773656 60.7445 L 226.773656 80.990594 L 208.640844 70.740594 Z M 226.773656 60.7445 " transform="matrix(1, 0, 0, -1, 0.199, 141.932)"/>
</g>
<path fill="none" stroke-width="0.3985" stroke-linecap="butt" stroke-linejoin="miter" stroke="rgb(0%, 0%, 0%)" stroke-opacity="0.5" stroke-miterlimit="10" d="M 0.00021875 80.990594 L 0.00021875 60.7445 L 18.160375 70.77575 Z M 0.00021875 80.990594 " transform="matrix(1, 0, 0, -1, 0.199, 141.932)"/>
<path fill="none" stroke-width="0.3985" stroke-linecap="butt" stroke-linejoin="miter" stroke="rgb(0%, 0%, 0%)" stroke-opacity="0.5" stroke-miterlimit="10" d="M 175.015844 123.896844 L 185.672094 106.795281 L 195.441625 125.072625 Z M 175.015844 123.896844 " transform="matrix(1, 0, 0, -1, 0.199, 141.932)"/>
<path fill="none" stroke-width="0.3985" stroke-linecap="butt" stroke-linejoin="miter" stroke="rgb(0%, 0%, 0%)" stroke-opacity="0.5" stroke-miterlimit="10" d="M 72.183813 17.756219 L 92.828344 17.822625 L 82.472875 35.447625 Z M 72.183813 17.756219 " transform="matrix(1, 0, 0, -1, 0.199, 141.932)"/>
<path fill="none" stroke-width="0.3985" stroke-linecap="butt" stroke-linejoin="miter" stroke="rgb(0%, 0%, 0%)" stroke-opacity="0.5" stroke-miterlimit="10" d="M 51.390844 52.932 L 30.566625 52.107781 L 40.949438 34.627312 Z M 51.390844 52.932 " transform="matrix(1, 0, 0, -1, 0.199, 141.932)"/>
<path fill="none" stroke-width="0.3985" stroke-linecap="butt" stroke-linejoin="miter" stroke="rgb(0%, 0%, 0%)" stroke-opacity="0.5" stroke-miterlimit="10" d="M 174.95725 17.576531 L 194.672094 17.252312 L 184.886937 35.057 Z M 174.95725 17.576531 " transform="matrix(1, 0, 0, -1, 0.199, 141.932)"/>
<path fill="none" stroke-width="0.3985" stroke-linecap="butt" stroke-linejoin="miter" stroke="rgb(0%, 0%, 0%)" stroke-opacity="0.5" stroke-miterlimit="10" d="M 164.836156 35.099969 L 154.422094 52.689812 L 144.109594 35.252312 Z M 164.836156 35.099969 " transform="matrix(1, 0, 0, -1, 0.199, 141.932)"/>
<path fill="none" stroke-width="0.3985" stroke-linecap="butt" stroke-linejoin="miter" stroke="rgb(0%, 0%, 0%)" stroke-opacity="0.5" stroke-miterlimit="10" d="M 51.539281 17.853875 L 72.183813 17.756219 L 61.625219 35.33825 Z M 51.539281 17.853875 " transform="matrix(1, 0, 0, -1, 0.199, 141.932)"/>
<path fill="none" stroke-width="0.3985" stroke-linecap="butt" stroke-linejoin="miter" stroke="rgb(0%, 0%, 0%)" stroke-opacity="0.5" stroke-miterlimit="10" d="M 113.293188 17.767937 L 133.914281 17.693719 L 123.406469 35.346062 Z M 113.293188 17.767937 " transform="matrix(1, 0, 0, -1, 0.199, 141.932)"/>
<path fill="none" stroke-width="0.3985" stroke-linecap="butt" stroke-linejoin="miter" stroke="rgb(0%, 0%, 0%)" stroke-opacity="0.5" stroke-miterlimit="10" d="M 82.211156 70.557 L 71.996313 52.990594 L 92.500219 53.131219 Z M 82.211156 70.557 " transform="matrix(1, 0, 0, -1, 0.199, 141.932)"/>
<path fill="none" stroke-width="0.3985" stroke-linecap="butt" stroke-linejoin="miter" stroke="rgb(0%, 0%, 0%)" stroke-opacity="0.5" stroke-miterlimit="10" d="M 51.390844 52.932 L 40.949438 34.627312 L 61.625219 35.33825 Z M 51.390844 52.932 " transform="matrix(1, 0, 0, -1, 0.199, 141.932)"/>
<path fill="none" stroke-width="0.3985" stroke-linecap="butt" stroke-linejoin="miter" stroke="rgb(0%, 0%, 0%)" stroke-opacity="0.5" stroke-miterlimit="10" d="M 133.70725 52.799187 L 123.406469 70.432 L 113.08225 53.02575 Z M 133.70725 52.799187 " transform="matrix(1, 0, 0, -1, 0.199, 141.932)"/>
<path fill="none" stroke-width="0.3985" stroke-linecap="butt" stroke-linejoin="miter" stroke="rgb(0%, 0%, 0%)" stroke-opacity="0.5" stroke-miterlimit="10" d="M 154.422094 52.689812 L 133.70725 52.799187 L 144.109594 35.252312 Z M 154.422094 52.689812 " transform="matrix(1, 0, 0, -1, 0.199, 141.932)"/>
<path fill="none" stroke-width="0.3985" stroke-linecap="butt" stroke-linejoin="miter" stroke="rgb(0%, 0%, 0%)" stroke-opacity="0.5" stroke-miterlimit="10" d="M 174.9885 52.658562 L 154.422094 52.689812 L 164.836156 35.099969 Z M 174.9885 52.658562 " transform="matrix(1, 0, 0, -1, 0.199, 141.932)"/>
<path fill="none" stroke-width="0.3985" stroke-linecap="butt" stroke-linejoin="miter" stroke="rgb(0%, 0%, 0%)" stroke-opacity="0.5" stroke-miterlimit="10" d="M 40.949438 34.627312 L 51.539281 17.853875 L 61.625219 35.33825 Z M 40.949438 34.627312 " transform="matrix(1, 0, 0, -1, 0.199, 141.932)"/>
<path fill="none" stroke-width="0.3985" stroke-linecap="butt" stroke-linejoin="miter" stroke="rgb(0%, 0%, 0%)" stroke-opacity="0.5" stroke-miterlimit="10" d="M 92.828344 17.822625 L 102.937719 35.459344 L 82.472875 35.447625 Z M 92.828344 17.822625 " transform="matrix(1, 0, 0, -1, 0.199, 141.932)"/>
<path fill="none" stroke-width="0.3985" stroke-linecap="butt" stroke-linejoin="miter" stroke="rgb(0%, 0%, 0%)" stroke-opacity="0.5" stroke-miterlimit="10" d="M 71.996313 52.990594 L 51.390844 52.932 L 61.625219 35.33825 Z M 71.996313 52.990594 " transform="matrix(1, 0, 0, -1, 0.199, 141.932)"/>
<path fill="none" stroke-width="0.3985" stroke-linecap="butt" stroke-linejoin="miter" stroke="rgb(0%, 0%, 0%)" stroke-opacity="0.5" stroke-miterlimit="10" d="M 133.70725 52.799187 L 113.08225 53.02575 L 123.406469 35.346062 Z M 133.70725 52.799187 " transform="matrix(1, 0, 0, -1, 0.199, 141.932)"/>
<path fill="none" stroke-width="0.3985" stroke-linecap="butt" stroke-linejoin="miter" stroke="rgb(0%, 0%, 0%)" stroke-opacity="0.5" stroke-miterlimit="10" d="M 92.500219 53.131219 L 102.937719 35.459344 L 113.08225 53.02575 Z M 92.500219 53.131219 " transform="matrix(1, 0, 0, -1, 0.199, 141.932)"/>
<path fill="none" stroke-width="0.3985" stroke-linecap="butt" stroke-linejoin="miter" stroke="rgb(0%, 0%, 0%)" stroke-opacity="0.5" stroke-miterlimit="10" d="M 71.996313 52.990594 L 82.472875 35.447625 L 92.500219 53.131219 Z M 71.996313 52.990594 " transform="matrix(1, 0, 0, -1, 0.199, 141.932)"/>
<path fill="none" stroke-width="0.3985" stroke-linecap="butt" stroke-linejoin="miter" stroke="rgb(0%, 0%, 0%)" stroke-opacity="0.5" stroke-miterlimit="10" d="M 154.617406 17.853875 L 164.836156 35.099969 L 144.109594 35.252312 Z M 154.617406 17.853875 " transform="matrix(1, 0, 0, -1, 0.199, 141.932)"/>
<path fill="none" stroke-width="0.3985" stroke-linecap="butt" stroke-linejoin="miter" stroke="rgb(0%, 0%, 0%)" stroke-opacity="0.5" stroke-miterlimit="10" d="M 206.156469 141.732781 L 185.543187 141.732781 L 195.441625 125.072625 Z M 206.156469 141.732781 " transform="matrix(1, 0, 0, -1, 0.199, 141.932)"/>
<g clip-path="url(#clip-19)">
<path fill="none" stroke-width="0.3985" stroke-linecap="butt" stroke-linejoin="miter" stroke="rgb(0%, 0%, 0%)" stroke-opacity="0.5" stroke-miterlimit="10" d="M 20.617406 -0.00159375 L 41.230688 -0.00159375 L 31.293187 16.58825 Z M 20.617406 -0.00159375 " transform="matrix(1, 0, 0, -1, 0.199, 141.932)"/>
</g>
<path fill="none" stroke-width="0.3985" stroke-linecap="butt" stroke-linejoin="miter" stroke="rgb(0%, 0%, 0%)" stroke-opacity="0.5" stroke-miterlimit="10" d="M 195.246312 52.478875 L 174.9885 52.658562 L 184.886937 35.057 Z M 195.246312 52.478875 " transform="matrix(1, 0, 0, -1, 0.199, 141.932)"/>
<path fill="none" stroke-width="0.3985" stroke-linecap="butt" stroke-linejoin="miter" stroke="rgb(0%, 0%, 0%)" stroke-opacity="0.5" stroke-miterlimit="10" d="M 29.629125 88.353875 L 50.51975 88.553094 L 40.156469 106.201531 Z M 29.629125 88.353875 " transform="matrix(1, 0, 0, -1, 0.199, 141.932)"/>
<path fill="none" stroke-width="0.3985" stroke-linecap="butt" stroke-linejoin="miter" stroke="rgb(0%, 0%, 0%)" stroke-opacity="0.5" stroke-miterlimit="10" d="M 102.828344 70.432 L 82.211156 70.557 L 92.500219 53.131219 Z M 102.828344 70.432 " transform="matrix(1, 0, 0, -1, 0.199, 141.932)"/>
<path fill="none" stroke-width="0.3985" stroke-linecap="butt" stroke-linejoin="miter" stroke="rgb(0%, 0%, 0%)" stroke-opacity="0.5" stroke-miterlimit="10" d="M 154.617406 17.853875 L 174.95725 17.576531 L 164.836156 35.099969 Z M 154.617406 17.853875 " transform="matrix(1, 0, 0, -1, 0.199, 141.932)"/>
<path fill="none" stroke-width="0.3985" stroke-linecap="butt" stroke-linejoin="miter" stroke="rgb(0%, 0%, 0%)" stroke-opacity="0.5" stroke-miterlimit="10" d="M 133.914281 17.693719 L 154.617406 17.853875 L 144.109594 35.252312 Z M 133.914281 17.693719 " transform="matrix(1, 0, 0, -1, 0.199, 141.932)"/>
<path fill="none" stroke-width="0.3985" stroke-linecap="butt" stroke-linejoin="miter" stroke="rgb(0%, 0%, 0%)" stroke-opacity="0.5" stroke-miterlimit="10" d="M 82.472875 35.447625 L 102.937719 35.459344 L 92.500219 53.131219 Z M 82.472875 35.447625 " transform="matrix(1, 0, 0, -1, 0.199, 141.932)"/>
<path fill="none" stroke-width="0.3985" stroke-linecap="butt" stroke-linejoin="miter" stroke="rgb(0%, 0%, 0%)" stroke-opacity="0.5" stroke-miterlimit="10" d="M 102.828344 70.432 L 92.500219 53.131219 L 113.08225 53.02575 Z M 102.828344 70.432 " transform="matrix(1, 0, 0, -1, 0.199, 141.932)"/>
<path fill="none" stroke-width="0.3985" stroke-linecap="butt" stroke-linejoin="miter" stroke="rgb(0%, 0%, 0%)" stroke-opacity="0.5" stroke-miterlimit="10" d="M 123.406469 70.432 L 102.828344 70.432 L 113.08225 53.02575 Z M 123.406469 70.432 " transform="matrix(1, 0, 0, -1, 0.199, 141.932)"/>
<g clip-path="url(#clip-20)">
<path fill="none" stroke-width="0.3985" stroke-linecap="butt" stroke-linejoin="miter" stroke="rgb(0%, 0%, 0%)" stroke-opacity="0.5" stroke-miterlimit="10" d="M 207.523656 33.029656 L 226.773656 40.4945 L 212.902562 51.248406 Z M 207.523656 33.029656 " transform="matrix(1, 0, 0, -1, 0.199, 141.932)"/>
</g>
<path fill="none" stroke-width="0.3985" stroke-linecap="butt" stroke-linejoin="miter" stroke="rgb(0%, 0%, 0%)" stroke-opacity="0.5" stroke-miterlimit="10" d="M 102.937719 35.459344 L 113.293188 17.767937 L 123.406469 35.346062 Z M 102.937719 35.459344 " transform="matrix(1, 0, 0, -1, 0.199, 141.932)"/>
<path fill="none" stroke-width="0.3985" stroke-linecap="butt" stroke-linejoin="miter" stroke="rgb(0%, 0%, 0%)" stroke-opacity="0.5" stroke-miterlimit="10" d="M 40.156469 106.201531 L 30.922094 123.881219 L 18.437719 108.420281 Z M 40.156469 106.201531 " transform="matrix(1, 0, 0, -1, 0.199, 141.932)"/>
<path fill="none" stroke-width="0.3985" stroke-linecap="butt" stroke-linejoin="miter" stroke="rgb(0%, 0%, 0%)" stroke-opacity="0.5" stroke-miterlimit="10" d="M 113.08225 53.02575 L 102.937719 35.459344 L 123.406469 35.346062 Z M 113.08225 53.02575 " transform="matrix(1, 0, 0, -1, 0.199, 141.932)"/>
<path fill="none" stroke-width="0.3985" stroke-linecap="butt" stroke-linejoin="miter" stroke="rgb(0%, 0%, 0%)" stroke-opacity="0.5" stroke-miterlimit="10" d="M 196.136937 89.228875 L 208.640844 70.740594 L 213.281469 91.115594 Z M 196.136937 89.228875 " transform="matrix(1, 0, 0, -1, 0.199, 141.932)"/>
<path fill="none" stroke-width="0.3985" stroke-linecap="butt" stroke-linejoin="miter" stroke="rgb(0%, 0%, 0%)" stroke-opacity="0.5" stroke-miterlimit="10" d="M 184.886937 35.057 L 174.9885 52.658562 L 164.836156 35.099969 Z M 184.886937 35.057 " transform="matrix(1, 0, 0, -1, 0.199, 141.932)"/>
<path fill="none" stroke-width="0.3985" stroke-linecap="butt" stroke-linejoin="miter" stroke="rgb(0%, 0%, 0%)" stroke-opacity="0.5" stroke-miterlimit="10" d="M 51.539281 17.853875 L 40.949438 34.627312 L 31.293187 16.58825 Z M 51.539281 17.853875 " transform="matrix(1, 0, 0, -1, 0.199, 141.932)"/>
<path fill="none" stroke-width="0.3985" stroke-linecap="butt" stroke-linejoin="miter" stroke="rgb(0%, 0%, 0%)" stroke-opacity="0.5" stroke-miterlimit="10" d="M 174.95725 17.576531 L 184.886937 35.057 L 164.836156 35.099969 Z M 174.95725 17.576531 " transform="matrix(1, 0, 0, -1, 0.199, 141.932)"/>
<path fill="none" stroke-width="0.3985" stroke-linecap="butt" stroke-linejoin="miter" stroke="rgb(0%, 0%, 0%)" stroke-opacity="0.5" stroke-miterlimit="10" d="M 18.160375 70.77575 L 29.629125 88.353875 L 13.211156 91.115594 Z M 18.160375 70.77575 " transform="matrix(1, 0, 0, -1, 0.199, 141.932)"/>
<path fill="none" stroke-width="0.3985" stroke-linecap="butt" stroke-linejoin="miter" stroke="rgb(0%, 0%, 0%)" stroke-opacity="0.5" stroke-miterlimit="10" d="M 184.886937 35.057 L 194.672094 17.252312 L 207.523656 33.029656 Z M 184.886937 35.057 " transform="matrix(1, 0, 0, -1, 0.199, 141.932)"/>
<path fill="none" stroke-width="0.3985" stroke-linecap="butt" stroke-linejoin="miter" stroke="rgb(0%, 0%, 0%)" stroke-opacity="0.5" stroke-miterlimit="10" d="M 185.543187 141.732781 L 175.015844 123.896844 L 195.441625 125.072625 Z M 185.543187 141.732781 " transform="matrix(1, 0, 0, -1, 0.199, 141.932)"/>
<g clip-path="url(#clip-21)">
<path fill="none" stroke-width="0.3985" stroke-linecap="butt" stroke-linejoin="miter" stroke="rgb(0%, 0%, 0%)" stroke-opacity="0.5" stroke-miterlimit="10" d="M 41.230688 -0.00159375 L 51.539281 17.853875 L 31.293187 16.58825 Z M 41.230688 -0.00159375 " transform="matrix(1, 0, 0, -1, 0.199, 141.932)"/>
</g>
<g clip-path="url(#clip-22)">
<path fill="none" stroke-width="0.3985" stroke-linecap="butt" stroke-linejoin="miter" stroke="rgb(0%, 0%, 0%)" stroke-opacity="0.5" stroke-miterlimit="10" d="M 206.156469 -0.00159375 L 226.773656 -0.00159375 L 211.621312 15.057 Z M 206.156469 -0.00159375 " transform="matrix(1, 0, 0, -1, 0.199, 141.932)"/>
</g>
<path fill="none" stroke-width="0.3985" stroke-linecap="butt" stroke-linejoin="miter" stroke="rgb(0%, 0%, 0%)" stroke-opacity="0.5" stroke-miterlimit="10" d="M 20.617406 141.732781 L 0.00021875 141.732781 L 15.152563 126.678094 Z M 20.617406 141.732781 " transform="matrix(1, 0, 0, -1, 0.199, 141.932)"/>
<g clip-path="url(#clip-23)">
<path fill="none" stroke-width="0.3985" stroke-linecap="butt" stroke-linejoin="miter" stroke="rgb(0%, 0%, 0%)" stroke-opacity="0.5" stroke-miterlimit="10" d="M 226.773656 -0.00159375 L 226.773656 20.248406 L 211.621312 15.057 Z M 226.773656 -0.00159375 " transform="matrix(1, 0, 0, -1, 0.199, 141.932)"/>
</g>
<path fill="none" stroke-width="0.3985" stroke-linecap="butt" stroke-linejoin="miter" stroke="rgb(0%, 0%, 0%)" stroke-opacity="0.5" stroke-miterlimit="10" d="M 0.00021875 141.732781 L 0.00021875 121.486687 L 15.152563 126.678094 Z M 0.00021875 141.732781 " transform="matrix(1, 0, 0, -1, 0.199, 141.932)"/>
<path fill="none" stroke-width="0.3985" stroke-linecap="butt" stroke-linejoin="miter" stroke="rgb(0%, 0%, 0%)" stroke-opacity="0.5" stroke-miterlimit="10" d="M 195.246312 52.478875 L 184.886937 35.057 L 207.523656 33.029656 Z M 195.246312 52.478875 " transform="matrix(1, 0, 0, -1, 0.199, 141.932)"/>
<g clip-path="url(#clip-24)">
<path fill="none" stroke-width="0.3985" stroke-linecap="butt" stroke-linejoin="miter" stroke="rgb(0%, 0%, 0%)" stroke-opacity="0.5" stroke-miterlimit="10" d="M 226.773656 60.7445 L 208.640844 70.740594 L 212.902562 51.248406 Z M 226.773656 60.7445 " transform="matrix(1, 0, 0, -1, 0.199, 141.932)"/>
</g>
<path fill="none" stroke-width="0.3985" stroke-linecap="butt" stroke-linejoin="miter" stroke="rgb(0%, 0%, 0%)" stroke-opacity="0.5" stroke-miterlimit="10" d="M 0.00021875 40.4945 L 18.558812 32.291375 L 13.45725 51.283562 Z M 0.00021875 40.4945 " transform="matrix(1, 0, 0, -1, 0.199, 141.932)"/>
<path fill="none" stroke-width="0.3985" stroke-linecap="butt" stroke-linejoin="miter" stroke="rgb(0%, 0%, 0%)" stroke-opacity="0.5" stroke-miterlimit="10" d="M 18.160375 70.77575 L 0.00021875 60.7445 L 13.45725 51.283562 Z M 18.160375 70.77575 " transform="matrix(1, 0, 0, -1, 0.199, 141.932)"/>
<g clip-path="url(#clip-25)">
<path fill="none" stroke-width="0.3985" stroke-linecap="butt" stroke-linejoin="miter" stroke="rgb(0%, 0%, 0%)" stroke-opacity="0.5" stroke-miterlimit="10" d="M 226.773656 101.236687 L 208.33225 109.299187 L 213.281469 91.115594 Z M 226.773656 101.236687 " transform="matrix(1, 0, 0, -1, 0.199, 141.932)"/>
</g>
<g clip-path="url(#clip-26)">
<path fill="none" stroke-width="0.3985" stroke-linecap="butt" stroke-linejoin="miter" stroke="rgb(0%, 0%, 0%)" stroke-opacity="0.5" stroke-miterlimit="10" d="M 208.640844 70.740594 L 226.773656 80.990594 L 213.281469 91.115594 Z M 208.640844 70.740594 " transform="matrix(1, 0, 0, -1, 0.199, 141.932)"/>
</g>
<path fill="none" stroke-width="0.3985" stroke-linecap="butt" stroke-linejoin="miter" stroke="rgb(0%, 0%, 0%)" stroke-opacity="0.5" stroke-miterlimit="10" d="M 0.00021875 80.990594 L 18.160375 70.77575 L 13.211156 91.115594 Z M 0.00021875 80.990594 " transform="matrix(1, 0, 0, -1, 0.199, 141.932)"/>
<g clip-path="url(#clip-27)">
<path fill="none" stroke-width="0.3985" stroke-linecap="butt" stroke-linejoin="miter" stroke="rgb(0%, 0%, 0%)" stroke-opacity="0.5" stroke-miterlimit="10" d="M 226.773656 141.732781 L 206.156469 141.732781 L 211.914281 126.974969 Z M 226.773656 141.732781 " transform="matrix(1, 0, 0, -1, 0.199, 141.932)"/>
</g>
<g clip-path="url(#clip-28)">
<path fill="none" stroke-width="0.3985" stroke-linecap="butt" stroke-linejoin="miter" stroke="rgb(0%, 0%, 0%)" stroke-opacity="0.5" stroke-miterlimit="10" d="M 0.00021875 -0.00159375 L 20.617406 -0.00159375 L 14.859594 14.760125 Z M 0.00021875 -0.00159375 " transform="matrix(1, 0, 0, -1, 0.199, 141.932)"/>
</g>
<g clip-path="url(#clip-29)">
<path fill="none" stroke-width="0.3985" stroke-linecap="butt" stroke-linejoin="miter" stroke="rgb(0%, 0%, 0%)" stroke-opacity="0.5" stroke-miterlimit="10" d="M 226.773656 121.486687 L 226.773656 141.732781 L 211.914281 126.974969 Z M 226.773656 121.486687 " transform="matrix(1, 0, 0, -1, 0.199, 141.932)"/>
</g>
<g clip-path="url(#clip-30)">
<path fill="none" stroke-width="0.3985" stroke-linecap="butt" stroke-linejoin="miter" stroke="rgb(0%, 0%, 0%)" stroke-opacity="0.5" stroke-miterlimit="10" d="M 0.00021875 20.248406 L 0.00021875 -0.00159375 L 14.859594 14.760125 Z M 0.00021875 20.248406 " transform="matrix(1, 0, 0, -1, 0.199, 141.932)"/>
</g>
<path fill="none" stroke-width="0.3985" stroke-linecap="butt" stroke-linejoin="miter" stroke="rgb(0%, 0%, 0%)" stroke-opacity="0.5" stroke-miterlimit="10" d="M 207.523656 33.029656 L 194.672094 17.252312 L 211.621312 15.057 Z M 207.523656 33.029656 " transform="matrix(1, 0, 0, -1, 0.199, 141.932)"/>
<path fill="none" stroke-width="0.3985" stroke-linecap="butt" stroke-linejoin="miter" stroke="rgb(0%, 0%, 0%)" stroke-opacity="0.5" stroke-miterlimit="10" d="M 29.629125 88.353875 L 18.437719 108.420281 L 13.211156 91.115594 Z M 29.629125 88.353875 " transform="matrix(1, 0, 0, -1, 0.199, 141.932)"/>
<path fill="none" stroke-width="0.3985" stroke-linecap="butt" stroke-linejoin="miter" stroke="rgb(0%, 0%, 0%)" stroke-opacity="0.5" stroke-miterlimit="10" d="M 18.437719 108.420281 L 30.922094 123.881219 L 15.152563 126.678094 Z M 18.437719 108.420281 " transform="matrix(1, 0, 0, -1, 0.199, 141.932)"/>
<g clip-path="url(#clip-31)">
<path fill="none" stroke-width="0.3985" stroke-linecap="butt" stroke-linejoin="miter" stroke="rgb(0%, 0%, 0%)" stroke-opacity="0.5" stroke-miterlimit="10" d="M 226.773656 40.4945 L 226.773656 60.7445 L 212.902562 51.248406 Z M 226.773656 40.4945 " transform="matrix(1, 0, 0, -1, 0.199, 141.932)"/>
</g>
<path fill="none" stroke-width="0.3985" stroke-linecap="butt" stroke-linejoin="miter" stroke="rgb(0%, 0%, 0%)" stroke-opacity="0.5" stroke-miterlimit="10" d="M 0.00021875 60.7445 L 0.00021875 40.4945 L 13.45725 51.283562 Z M 0.00021875 60.7445 " transform="matrix(1, 0, 0, -1, 0.199, 141.932)"/>
<path fill="none" stroke-width="0.3985" stroke-linecap="butt" stroke-linejoin="miter" stroke="rgb(0%, 0%, 0%)" stroke-opacity="0.5" stroke-miterlimit="10" d="M 18.437719 108.420281 L 0.00021875 101.236687 L 13.211156 91.115594 Z M 18.437719 108.420281 " transform="matrix(1, 0, 0, -1, 0.199, 141.932)"/>
<g clip-path="url(#clip-32)">
<path fill="none" stroke-width="0.3985" stroke-linecap="butt" stroke-linejoin="miter" stroke="rgb(0%, 0%, 0%)" stroke-opacity="0.5" stroke-miterlimit="10" d="M 226.773656 80.990594 L 226.773656 101.236687 L 213.281469 91.115594 Z M 226.773656 80.990594 " transform="matrix(1, 0, 0, -1, 0.199, 141.932)"/>
</g>
<path fill="none" stroke-width="0.3985" stroke-linecap="butt" stroke-linejoin="miter" stroke="rgb(0%, 0%, 0%)" stroke-opacity="0.5" stroke-miterlimit="10" d="M 0.00021875 101.236687 L 0.00021875 80.990594 L 13.211156 91.115594 Z M 0.00021875 101.236687 " transform="matrix(1, 0, 0, -1, 0.199, 141.932)"/>
<g clip-path="url(#clip-33)">
<path fill="none" stroke-width="0.3985" stroke-linecap="butt" stroke-linejoin="miter" stroke="rgb(0%, 0%, 0%)" stroke-opacity="0.5" stroke-miterlimit="10" d="M 20.617406 -0.00159375 L 31.293187 16.58825 L 14.859594 14.760125 Z M 20.617406 -0.00159375 " transform="matrix(1, 0, 0, -1, 0.199, 141.932)"/>
</g>
<path fill="none" stroke-width="0.3985" stroke-linecap="butt" stroke-linejoin="miter" stroke="rgb(0%, 0%, 0%)" stroke-opacity="0.5" stroke-miterlimit="10" d="M 206.156469 141.732781 L 195.441625 125.072625 L 211.914281 126.974969 Z M 206.156469 141.732781 " transform="matrix(1, 0, 0, -1, 0.199, 141.932)"/>
<path fill="none" stroke-width="0.3985" stroke-linecap="butt" stroke-linejoin="miter" stroke="rgb(0%, 0%, 0%)" stroke-opacity="0.5" stroke-miterlimit="10" d="M 195.246312 52.478875 L 207.523656 33.029656 L 212.902562 51.248406 Z M 195.246312 52.478875 " transform="matrix(1, 0, 0, -1, 0.199, 141.932)"/>
<g clip-path="url(#clip-34)">
<path fill="none" stroke-width="0.3985" stroke-linecap="butt" stroke-linejoin="miter" stroke="rgb(0%, 0%, 0%)" stroke-opacity="0.5" stroke-miterlimit="10" d="M 194.672094 17.252312 L 206.156469 -0.00159375 L 211.621312 15.057 Z M 194.672094 17.252312 " transform="matrix(1, 0, 0, -1, 0.199, 141.932)"/>
</g>
<path fill="none" stroke-width="0.3985" stroke-linecap="butt" stroke-linejoin="miter" stroke="rgb(0%, 0%, 0%)" stroke-opacity="0.5" stroke-miterlimit="10" d="M 30.922094 123.881219 L 20.617406 141.732781 L 15.152563 126.678094 Z M 30.922094 123.881219 " transform="matrix(1, 0, 0, -1, 0.199, 141.932)"/>
<g clip-path="url(#clip-35)">
<path fill="none" stroke-width="0.3985" stroke-linecap="butt" stroke-linejoin="miter" stroke="rgb(0%, 0%, 0%)" stroke-opacity="0.5" stroke-miterlimit="10" d="M 208.33225 109.299187 L 226.773656 121.486687 L 211.914281 126.974969 Z M 208.33225 109.299187 " transform="matrix(1, 0, 0, -1, 0.199, 141.932)"/>
</g>
<path fill="none" stroke-width="0.3985" stroke-linecap="butt" stroke-linejoin="miter" stroke="rgb(0%, 0%, 0%)" stroke-opacity="0.5" stroke-miterlimit="10" d="M 18.558812 32.291375 L 0.00021875 20.248406 L 14.859594 14.760125 Z M 18.558812 32.291375 " transform="matrix(1, 0, 0, -1, 0.199, 141.932)"/>
<path fill="none" stroke-width="0.3985" stroke-linecap="butt" stroke-linejoin="miter" stroke="rgb(0%, 0%, 0%)" stroke-opacity="0.5" stroke-miterlimit="10" d="M 195.441625 125.072625 L 208.33225 109.299187 L 211.914281 126.974969 Z M 195.441625 125.072625 " transform="matrix(1, 0, 0, -1, 0.199, 141.932)"/>
<path fill="none" stroke-width="0.3985" stroke-linecap="butt" stroke-linejoin="miter" stroke="rgb(0%, 0%, 0%)" stroke-opacity="0.5" stroke-miterlimit="10" d="M 31.293187 16.58825 L 18.558812 32.291375 L 14.859594 14.760125 Z M 31.293187 16.58825 " transform="matrix(1, 0, 0, -1, 0.199, 141.932)"/>
</svg>
