$MeshFormat
4.1 0 8
$EndMeshFormat
$Entities
4 4 1 0
1 0 0 0 0 
2 8 0 0 0 
3 8 5 0 0 
4 0 5 0 0 
1 0 0 0 8 0 0 1 1 2 1 -2 
2 8 0 0 8 5 0 1 1 2 2 -3 
3 0 5 0 8 5 0 1 1 2 3 -4 
4 0 0 0 0 5 0 1 1 2 4 -1 
1 0 0 0 8 5 0 1 0 4 1 2 3 4 
$EndEntities
$Nodes
9 462 1 462
0 1 0 1
1
0 0 0
0 2 0 1
2
8 0 0
0 3 0 1
3
8 5 0
0 4 0 1
4
0 5 0
1 1 0 10
5
6
7
8
9
10
11
12
13
14
0.7272727272713526 0 0
1.454545454542336 0 0
2.181818181812941 0 0
2.909090909083548 0 0
3.636363636354153 0 0
4.363636363626778 0 0
5.090909090901422 0 0
5.818181818176066 0 0
6.545454545450711 0 0
7.272727272725355 0 0
1 2 0 6
15
16
17
18
19
20
8 0.7142857142849608 0
8 1.428571428568591 0
8 2.142857142852804 0
8 2.857142857139607 0
8 3.571428571426405 0
8 4.285714285713203 0
1 3 0 10
21
22
23
24
25
26
27
28
29
30
7.272727272724246 5 0
6.545454545453539 5 0
5.818181818185859 5 0
5.09090909091818 5 0
4.3636363636505 5 0
3.636363636378783 5 0
2.909090909103026 5 0
2.181818181827269 5 0
1.454545454551513 5 0
0.7272727272757562 5 0
1 4 0 6
31
32
33
34
35
36
0 4.285714285714285 0
0 3.57142857142857 0
0 2.857142857142853 0
0 2.142857142857135 0
0 1.428571428571423 0
0 0.7142857142857117 0
2 1 0 426
37
38
39
40
41
42
43
44
45
46
47
48
49
50
51
52
53
54
55
56
57
58
59
60
61
62
63
64
65
66
67
68
69
70
71
72
73
74
75
76
77
78
79
80
81
82
83
84
85
86
87
88
89
90
91
92
93
94
95
96
97
98
99
100
101
102
103
104
105
106
107
108
109
110
111
112
113
114
115
116
117
118
119
120
121
122
123
124
125
126
127
128
129
130
131
132
133
134
135
136
137
138
139
140
141
142
143
144
145
146
147
148
149
150
151
152
153
154
155
156
157
158
159
160
161
162
163
164
165
166
167
168
169
170
171
172
173
174
175
176
177
178
179
180
181
182
183
184
185
186
187
188
189
190
191
192
193
194
195
196
197
198
199
200
201
202
203
204
205
206
207
208
209
210
211
212
213
214
215
216
217
218
219
220
221
222
223
224
225
226
227
228
229
230
231
232
233
234
235
236
237
238
239
240
241
242
243
244
245
246
247
248
249
250
251
252
253
254
255
256
257
258
259
260
261
262
263
264
265
266
267
268
269
270
271
272
273
274
275
276
277
278
279
280
281
282
283
284
285
286
287
288
289
290
291
292
293
294
295
296
297
298
299
300
301
302
303
304
305
306
307
308
309
310
311
312
313
314
315
316
317
318
319
320
321
322
323
324
325
326
327
328
329
330
331
332
333
334
335
336
337
338
339
340
341
342
343
344
345
346
347
348
349
350
351
352
353
354
355
356
357
358
359
360
361
362
363
364
365
366
367
368
369
370
371
372
373
374
375
376
377
378
379
380
381
382
383
384
385
386
387
388
389
390
391
392
393
394
395
396
397
398
399
400
401
402
403
404
405
406
407
408
409
410
411
412
413
414
415
416
417
418
419
420
421
422
423
424
425
426
427
428
429
430
431
432
433
434
435
436
437
438
439
440
441
442
443
444
445
446
447
448
449
450
451
452
453
454
455
456
457
458
459
460
461
462
0.5602509840966641 2.406392140393645 0
7.367959603277172 2.508337085032434 0
4.655551931317278 4.461230805259248 0
3.27272727271885 0.6298366572959357 0
4.703240309927222 0.6323615975402883 0
2.493799290743664 4.354389200401438 0
6.160386733093734 4.318975666899454 0
1.789637065615464 0.6644360373354478 0
6.18181818181339 0.6298366572994336 0
0.6185895741317393 1.071428571428567 0
7.38141042586732 3.928571428569803 0
1.146464526391944 4.353540053875411 0
7.359483477751603 1.189277351085724 0
2.574856158931414 0.5884638998728673 0
2.916531754025479 1.041989416655107 0
5.497166468996217 4.438128737522302 0
5.072733165343978 3.896421399897632 0
6.784290842383742 4.446092708487233 0
1.204998206163728 0.4437288272892664 0
1.421121578671027 1.027768845643488 0
3.878718943998358 0.7131282807484124 0
4.289248166698154 1.311745972916037 0
5.02342099921834 1.306223338839549 0
4.611860689602418 1.953783760570323 0
3.948847527830756 1.94970470889717 0
4.240557738252244 2.544133104071046 0
4.930194218088781 2.569310816675814 0
3.499876230301926 2.50987550420047 0
4.699218404564476 3.028348087743555 0
5.094845553047801 3.061840621835398 0
3.149035579244663 1.848832321745725 0
2.911423510154705 2.423958182238563 0
3.603193389695082 1.467223117208894 0
5.239219969707608 2.052966135691394 0
5.544042862397656 2.496342802717611 0
5.816123669907775 2.148149620231029 0
6.070803148097213 2.497821646424724 0
5.830320477573853 2.852066927827437 0
6.339579731371544 2.037967315091064 0
5.297543129821504 2.786782500154732 0
3.125628230755254 1.412423656963685 0
2.872421947716433 1.633819772126584 0
3.96266609283746 3.213743432487 0
3.108831140454784 3.198492276565009 0
2.516646793687966 2.84932815025233 0
2.356265571101964 2.407833030912975 0
3.567882107212575 3.860559298133709 0
4.197560869447373 3.88390329190744 0
3.324117102870326 1.048941123344951 0
2.84951452083839 1.314471004268398 0
2.986439070217897 1.237344547220169 0
6.703629561063639 2.395199068469009 0
6.404474356481652 2.857208108301297 0
6.963592956627388 1.966598215958578 0
7.067209465212615 2.951228498134306 0
6.640355283161754 1.331031322635401 0
2.460905018831029 3.583923140728931 0
1.884402227389123 3.17743148999037 0
1.838058698670145 3.924081246696947 0
1.224599310475718 3.542644009051271 0
5.813580469959878 1.448001578155329 0
7.460147667556055 3.221693654289057 0
5.264980650360248 2.554431503962876 0
5.438525144999386 0.6694038619724332 0
4.676015879453337 3.549437329317187 0
5.050902063756587 3.55009560453799 0
0.6372620044990992 1.668889087226584 0
1.26810862697007 2.142857142857134 0
1.158917144390848 1.576166387503122 0
1.333306503512304 2.888793817737126 0
1.752132105492777 2.524018210884572 0
1.090844302457207 1.203754661351841 0
0.6817262379047436 3.098859426245456 0
0.5956167539123891 3.889151645881345 0
6.912606183634933 0.611795475437969 0
5.825872233809911 2.567257895862293 0
2.91088049570687 0.5839424111399725 0
6.371554381643945 2.549483125441816 0
5.08326149970077 4.239426651635648 0
3.251009213243457 4.442402337526659 0
1.495214106512625 0.6606329473737644 0
4.000000000014642 4.474466638841451 0
3.157274112082725 2.178978552961115 0
2.958528323041275 2.093263989502474 0
2.777065057723509 2.224686397394307 0
2.932967827308704 1.860014182269758 0
2.918533687531932 2.225833940864157 0
2.844393014987171 2.123757043952023 0
2.730173024777311 2.080238913109047 0
2.625940264971355 2.169188444529353 0
2.596904108096099 2.030272396846376 0
2.702072372153072 1.942070206937522 0
2.570817851123627 1.892138225709459 0
2.46400469338147 1.982129014889663 0
2.438985120569003 1.844133804340356 0
2.33198815844239 1.934367222768012 0
2.307200013439548 1.796522241394997 0
2.414183143667525 1.70619079413242 0
2.282444493820555 1.658692571519701 0
2.175470481525557 1.749009548751389 0
2.150730479914842 1.611206100049371 0
2.257698021733999 1.520884607026247 0
2.125992254768353 1.473405880900686 0
2.232960091711222 1.383084924635053 0
2.101255749473499 1.335607580297121 0
2.364663996910925 1.430561826472323 0
2.043760552356733 1.701525016792392 0
2.068496015670416 1.83932224897442 0
1.994287433457626 1.425928018216924 0
1.969551573042345 1.288130394803963 0
1.936790391132177 1.79184323148238 0
2.076519804107756 1.197809871305376 0
2.339927689192634 1.292763759691111 0
1.944815792645654 1.150332855872049 0
1.837847531752431 1.240653348193391 0
1.813111801347525 1.102855861208895 0
2.471637813041265 1.340248002263292 0
1.706143543814964 1.193176356991934 0
1.730879262477558 1.330973831783644 0
2.051784037047245 1.060012346453248 0
2.44689696882486 1.202444471898881 0
1.961526386332381 1.929641046926192 0
1.829822183008215 1.882163787772971 0
1.805086424673692 1.744366265396178 0
1.698118171998114 1.834686766529194 0
1.67338244519059 1.696889283235655 0
2.093230566119935 1.977118199904876 0
2.496379067766273 1.478040966092721 0
1.780350698856062 1.606568782450843 0
1.648646723534803 1.55909180374131 0
2.315192140880398 1.154966486223852 0
2.5786071654146 1.249928817728948 0
2.553865577238663 1.112124393976977 0
1.722853892340403 1.972484241912954 0
2.616990477285329 2.388776500173254 0
2.677796378464449 1.16099679616882 0
2.658380334126893 1.022580473184145 0
1.98626195735997 2.067438324736254 0
2.117977195013945 2.114928429589622 0
2.356735400545705 2.072176555796572 0
1.59917528541997 1.283496851876283 0
1.566414190152826 1.787209781837402 0
2.672765679818761 1.802471498762188 0
2.530561882751939 0.9764805004177595 0
1.686762016216169 1.054417759768613 0
2.010999470766145 2.205237892733294 0
1.879293918288012 2.157759077780814 0
2.136458725701445 2.223643714305049 0
2.070164516753065 2.390743692752361 0
1.789268442170035 0.9648981934415787 0
1.665580769140431 0.9197080313189494 0
2.845402859341681 1.989958799866524 0
2.710303891319854 1.297397213886292 0
2.489932382740681 2.120245080726676 0
2.514601666072482 2.257664795711998 0
2.372519785257062 2.218823096730875 0
2.545139503540078 1.754017410600605 0
2.64655471463818 1.663384631747046 0
2.519976137839944 1.615922315471915 0
2.626004182157484 1.524494740747163 0
2.24607883317096 2.157785943822035 0
2.224368104281477 2.023862276658074 0
2.603000347505152 1.387544141464723 0
1.623911004843816 1.421294327701362 0
1.518547825878677 1.38331274568698 0
1.441821248036396 1.246978336767551 0
2.200125556579887 1.886700289741961 0
1.755614978414091 1.468771304199234 0
1.887318989920013 1.516248320440641 0
1.521332881917861 1.513197391540031 0
1.542410157916192 1.649676064548671 0
1.461197347325551 1.749280950771683 0
1.486137012590087 1.861375809498063 0
1.32774196052584 1.830053305385356 0
1.399473045094048 1.630418658040715 0
2.389224143623203 1.568382180119221 0
2.183488037581709 1.107489354811416 0
2.158752286435033 0.9696918429269288 0
2.027048307340773 0.9222148603441023 0
2.138963704463392 0.8594538552735996 0
2.26739961411835 0.8803041143674208 0
2.250110214307704 0.7124088966382092 0
2.406443807803541 0.7829915459423603 0
2.208223918824536 1.245286996160655 0
2.290736134862712 1.017324315693961 0
2.405384030493896 0.9283548623527227 0
1.854557990108509 2.019961364146518 0
1.747589683793467 2.110281800038437 0
1.615885644278002 2.062804747719365 0
1.640621365199042 2.2006022238986 0
1.772325323447028 2.248079180871665 0
1.435366853379671 2.409886011142647 0
2.423772789175411 1.065282505094026 0
1.920228785026643 1.012508666158722 0
1.8885475237046 0.868556652034953 0
2.025064575460327 0.7486303094222213 0
1.574439565780416 1.145699376071279 0
1.862583294844011 1.378450869606299 0
1.752994036544155 0.8394765681591765 0
1.912054997050134 1.65404614559545 0
1.595598427850809 1.922314850323282 0
2.019024117911284 1.563726580332577 0
1.459977568773946 2.022814063892126 0
1.533518321485198 2.15286222042892 0
1.385238778487999 1.464137848495428 0
2.735709088419561 1.431797813254617 0
2.878448874464976 1.48069138337671 0
2.077086350081284 2.756043025978866 0
2.794194319659288 1.068014998094321 0
2.756683462026761 0.9465023885870789 0
2.640808384007708 0.8685709403587066 0
2.864843191188684 1.175205915293311 0
2.792754877286141 0.7980792578046395 0
3.031043033233961 0.8728304624026515 0
2.753298062333935 1.572622656516634 0
2.987136843868682 1.572801377986355 0
2.962951904893765 1.73634779965128 0
2.972067081160204 1.372463458889007 0
2.796056049619918 1.851053895959796 0
1.056645948934825 2.481349703557434 0
1.904029297544822 2.295556156419733 0
2.091193257383313 0.4442291218950116 0
2.513272076945719 0.8384795639940492 0
1.001487778236224 2.017617961153879 0
2.884938572686231 0.9285998763041123 0
2.769048963409594 1.714937299873371 0
7.087118078167645 3.538761358403324 0
6.755564747254877 3.342164541592615 0
6.943572978109243 3.984996101088472 0
6.859564281888074 3.600506703912437 0
7.116478881645651 4.266247671800253 0
7.009853080034976 3.264006061301508 0
6.894861668354039 3.420271174231334 0
6.755512496311893 3.489263781329106 0
6.635745265141763 3.411231871058274 0
6.631448271697304 3.551332066996585 0
6.516128003591078 3.478175820005033 0
6.516079792709534 3.338451165436329 0
6.395329636955626 3.407010075809763 0
6.394071671270321 3.546963055458486 0
6.273579181523864 3.475764477542509 0
6.274969715438343 3.335770947228021 0
6.153093232009851 3.40455664386986 0
6.151696893706014 3.544551574058139 0
6.031160793559842 3.473352969585904 0
6.029774216298161 3.613346142351895 0
5.909231708963962 3.542148653028002 0
6.15031834558402 3.684543287527081 0
5.91061770347437 3.402155626348423 0
5.788687196254624 3.470951530764288 0
5.790073466641268 3.330958436122798 0
5.668142763757897 3.399754385046544 0
5.66675647213469 3.539747513397121 0
5.907845081015386 3.682141847146944 0
5.669529087620478 3.259761235893675 0
6.154470257220169 3.264565231308371 0
5.547598320859564 3.328557233751204 0
5.54898462553221 3.188564095798869 0
6.276394782566297 3.195769220891897 0
6.155861253168627 3.124570968088067 0
5.791459794972392 3.19096534975407 0
5.427053862382708 3.257360091548745 0
5.425667560787919 3.39735322770458 0
5.428440164568218 3.117366955047992 0
5.550370927606381 3.048570959363083 0
5.305949685067314 3.327621087494825 0
6.033934128696254 3.193366696534779 0
6.035319967828462 3.053373589960238 0
6.15709089731221 2.984575746831577 0
5.303874562526116 3.466393389814249 0
5.424304220500728 3.537387057966312 0
5.302377284336501 3.606189836008308 0
5.422897116674331 3.677343324856572 0
5.301469599548571 3.745296509636323 0
5.421593250549571 3.817193442322765 0
5.543453878517736 3.748514078671857 0
5.542069627003009 3.888502817043831 0
5.663989042457362 3.819725527064178 0
5.662601191381219 3.959721047866838 0
5.78452980483091 3.890928567251351 0
5.78314288681921 4.030922686672652 0
5.905073188868266 3.962127440721858 0
5.420139205633729 3.957298079771154 0
6.042358170041237 2.913436326627989 0
6.159378256714516 2.844634898843092 0
5.431633449596713 2.980576430576067 0
5.552119973494326 2.909220733821249 0
5.669238791845469 2.985170410162318 0
5.903686707711129 4.102120865689478 0
6.02561736399466 4.033325043093311 0
6.027003646974067 3.893331936140607 0
6.147548057999534 3.964529158536293 0
5.781755739625519 4.170917193224733 0
5.32092557162809 3.049145542132907 0
5.678131765374418 2.840328308526297 0
6.038092636094326 2.773387191936604 0
5.180419733857588 3.674938354798097 0
5.930808639162944 4.292000915719743 0
5.739200995879917 4.344808263299386 0
5.905708540206471 2.96817831372467 0
5.303994725780654 3.885151229901436 0
5.302745649946305 4.025992031614972 0
5.204153196297807 3.538513853533029 0
5.186613484842519 3.411644357156063 0
5.540668420654569 4.028520286671869 0
5.419927816387882 4.069288270041567 0
5.336440463211152 4.172711583751365 0
5.187935770704827 4.076051860767164 0
5.661489750718124 4.071719452578853 0
5.317976832128231 3.18845057588211 0
5.546780591332162 4.17284763083021 0
5.665373450640545 3.679735509404404 0
5.670404847431994 3.120667442480427 0
5.54621584324319 3.468557153623756 0
5.54483349695187 3.608547439653337 0
5.906459371858531 3.82213441746687 0
5.787301425471725 3.610943806420462 0
5.78591636271241 3.750934945792368 0
6.028389165071983 3.753338950570114 0
6.148933849836029 3.824536103101835 0
6.269478716139003 3.89573320795837 0
6.268092482470548 4.035726337993568 0
6.390023239050156 3.966930348395606 0
6.391409753082958 3.826937593015859 0
6.511954046436891 3.898134416737736 0
6.388636948200682 4.106923484657536 0
6.513210660240802 3.758237331945583 0
6.631183111428602 3.829424334731995 0
6.629452882212888 3.969320133232769 0
6.510060117671816 4.038125606549812 0
6.509357153678242 4.150121621996029 0
6.62956773652404 4.102916302486546 0
6.87404920527917 4.189611751297279 0
6.758163168121739 4.049354566232219 0
6.148763631743046 4.116932337849693 0
6.270626089219891 4.165094889999394 0
6.390907663273642 4.253194120761783 0
6.024230964140926 4.173318337991212 0
6.270865092381809 3.755740075378608 0
6.277113578202557 3.05660706633107 0
6.397706005354771 3.127956156923766 0
6.032546715124852 3.333359963189125 0
5.912003713613818 3.262162635720742 0
5.911878667055405 3.119836531600841 0
5.792845857015037 3.050972603910548 0
6.272221387261788 3.615751470789457 0
6.392677729953986 3.686962469639693 0
6.396927050781615 3.266963793620422 0
6.517513997037909 3.198382782010863 0
6.519834040509917 3.059928494979082 0
6.634912823099619 3.127817611924965 0
6.640261152149041 2.98826309771555 0
6.882696342408359 3.117990068029586 0
6.513744460985363 3.618598787071291 0
6.629553312504726 3.689897612369827 0
6.760625253059038 3.747926158908071 0
5.431068677674209 2.844656386607824 0
5.554921082999052 2.7433013911169 0
6.278224374502759 2.915771454853584 0
6.280447886052168 2.775995788610648 0
6.166302891318767 2.700379464282811 0
6.522928693596937 2.922114900417947 0
6.642806382339562 2.851048837337064 0
6.917019596593667 2.656486927543098 0
6.763925322354379 2.920761198315738 0
6.773984704521583 2.797217683820528 0
6.8805970352937 2.863597205607125 0
6.52331484021136 2.813025404271085 0
6.619321334136798 2.683814368465981 0
6.39676965307563 2.991984069542781 0
6.633428205914243 3.269928011791399 0
6.429284649099085 2.732572265692767 0
5.201100394234768 3.238085121640349 0
4.984782629983249 3.306575187038423 0
5.211831003886569 3.831391759864305 0
6.741901530602235 4.183704521832905 0
6.617870288279278 4.261286859170029 0
6.756815454317044 3.055322816855138 0
6.73885730518959 3.90038129413855 0
5.418511280650534 2.685102916911989 0
6.750860211373686 3.193959244813986 0
5.317453225119828 2.921192990412314 0
5.190239861895813 2.884418815194338 0
5.14666616303071 2.723150296887347 0
5.012232840125516 2.85341372766729 0
6.727340723092208 3.615785264703205 0
6.977023752692735 3.77250207541268 0
5.682383714561331 2.676867099134379 0
6.982805542661984 2.387476508918092 0
5.215848063132467 3.943001656409102 0
7.514229106767766 4.535708793132383 0
5.191307509723446 4.635662307092419 0
2.866689338589683 1.759234589976158 0
7.52754685447725 1.785714285710697 0
2.971483647234081 1.94801732334612 0
1.577590467641977 1.00746924675193 0
1.497118228019152 0.8755470701333552 0
1.636106004067858 0.78599627574617 0
1.818181818189391 4.532559586134266 0
6.858767209885187 3.267678217993806 0
5.94008802522533 2.849029001121629 0
0.64155762997002 0.520989879770556 0
5.77549261140745 2.942708236674797 0
5.946993616504804 4.654478421571977 0
1.702901045338401 0.3688378223155817 0
5.769277929005234 2.753525175709311 0
5.88396030221076 2.738076245491444 0
7.475798340906792 0.5206275216072563 0
2.777536291202365 1.214209610228561 0
0.5138718066814392 4.488699598350716 0
2.245311635157012 2.283418099801459 0
3.501483194189152 1.969513477163149 0
6.855019822262651 3.851451407386943 0
4.706274817197507 3.98072873730107 0
1.538463508652296 2.257783499575005 0
1.638517613518982 2.331024069622322 0
1.438620392456323 2.194362523103111 0
6.419482948701956 4.53093477179248 0
2.990820257562279 1.459594969303939 0
2.954323634643087 3.909966289846065 0
5.231883554142158 3.006411759813552 0
7.094190049181665 4.640969492827221 0
5.23334638103621 3.108786724260863 0
3.101284350083175 1.094562011417965 0
6.870248723917221 2.981779957388378 0
1.191266064058605 0.8579194230470472 0
$EndNodes
$Elements
5 922 1 922
1 1 1 11
1 1 5 
2 5 6 
3 6 7 
4 7 8 
5 8 9 
6 9 10 
7 10 11 
8 11 12 
9 12 13 
10 13 14 
11 14 2 
1 2 1 7
12 2 15 
13 15 16 
14 16 17 
15 17 18 
16 18 19 
17 19 20 
18 20 3 
1 3 1 11
19 3 21 
20 21 22 
21 22 23 
22 23 24 
23 24 25 
24 25 26 
25 26 27 
26 27 28 
27 28 29 
28 29 30 
29 30 4 
1 4 1 7
30 4 31 
31 31 32 
32 32 33 
33 33 34 
34 34 35 
35 35 36 
36 36 1 
2 1 2 886
37 65 63 421 
38 329 335 347 
39 73 332 443 
40 62 60 63 
41 66 457 459 
42 68 64 80 
43 269 264 436 
44 8 40 113 
45 78 243 252 
46 104 210 239 
47 102 101 410 
48 269 266 270 
49 264 269 270 
50 370 369 412 
51 243 78 251 
52 53 115 450 
53 247 50 249 
54 233 56 432 
55 343 115 344 
56 114 396 397 
57 120 119 123 
58 250 51 261 
59 239 240 453 
60 63 70 99 
61 249 250 261 
62 49 90 92 
63 76 419 420 
64 119 68 123 
65 90 49 430 
66 43 334 374 
67 68 80 81 
68 7 8 50 
69 250 85 460 
70 105 103 108 
71 88 400 405 
72 70 59 97 
73 117 433 462 
74 69 67 77 
75 68 121 123 
76 246 247 249 
77 57 69 85 
78 51 250 460 
79 91 98 268 
80 185 82 244 
81 396 114 408 
82 72 70 97 
83 92 75 97 
84 52 343 347 
85 52 335 440 
86 95 48 96 
87 392 266 423 
88 451 228 453 
89 87 86 248 
90 333 102 339 
91 393 76 416 
92 104 239 453 
93 66 409 410 
94 91 38 98 
95 332 73 397 
96 402 400 403 
97 57 58 69 
98 264 270 271 
99 62 63 65 
100 63 60 70 
101 67 119 120 
102 371 43 374 
103 64 68 119 
104 50 247 259 
105 45 92 97 
106 50 113 249 
107 242 86 243 
108 87 51 460 
109 43 371 372 
110 40 57 85 
111 245 246 261 
112 70 71 99 
113 8 9 40 
114 94 106 107 
115 36 1 438 
116 51 245 261 
117 263 266 269 
118 52 23 428 
119 401 402 403 
120 107 106 228 
121 189 86 242 
122 86 87 254 
123 94 107 244 
124 266 392 422 
125 75 72 97 
126 79 65 101 
127 92 45 111 
128 84 79 101 
129 331 394 424 
130 7 50 258 
131 78 252 253 
132 242 243 251 
133 401 403 461 
134 122 188 255 
135 5 6 55 
136 93 42 95 
137 217 219 222 
138 331 74 439 
139 188 128 255 
140 50 218 258 
141 83 84 118 
142 106 109 256 
143 109 37 256 
144 116 83 118 
145 1 5 438 
146 335 52 347 
147 263 47 423 
148 73 75 114 
149 71 72 112 
150 23 52 440 
151 44 231 235 
152 270 266 422 
153 48 95 435 
154 76 99 416 
155 125 128 188 
156 74 331 442 
157 265 47 267 
158 57 41 58 
159 271 270 272 
160 96 48 110 
161 253 122 429 
162 75 88 114 
163 89 395 396 
164 24 25 39 
165 49 92 111 
166 218 232 258 
167 40 9 57 
168 97 59 100 
169 10 41 57 
170 231 44 232 
171 387 414 417 
172 59 41 100 
173 265 370 415 
174 58 41 59 
175 271 272 273 
176 72 73 112 
177 398 386 406 
178 105 108 241 
179 190 191 192 
180 176 130 190 
181 264 271 407 
182 176 190 192 
183 339 102 340 
184 58 59 60 
185 99 76 420 
186 271 273 274 
187 130 127 190 
188 267 54 369 
189 399 404 405 
190 197 175 198 
191 176 192 197 
192 195 134 212 
193 58 60 61 
194 274 273 275 
195 195 164 196 
196 196 164 199 
197 193 134 195 
198 153 168 199 
199 184 175 197 
200 164 195 212 
201 176 197 198 
202 131 134 193 
203 168 189 199 
204 164 153 199 
205 61 60 62 
206 129 131 193 
207 275 273 276 
208 61 62 64 
209 275 276 277 
210 375 382 383 
211 64 62 79 
212 275 277 278 
213 198 163 203 
214 175 163 198 
215 64 79 80 
216 132 198 203 
217 278 277 279 
218 144 136 203 
219 163 144 203 
220 80 79 83 
221 279 277 280 
222 278 279 292 
223 136 133 203 
224 83 79 84 
225 279 280 281 
226 278 292 295 
227 138 142 212 
228 142 164 212 
229 295 292 296 
230 281 280 282 
231 207 208 211 
232 135 138 212 
233 162 178 207 
234 207 178 208 
235 166 200 204 
236 165 166 204 
237 166 162 207 
238 200 166 206 
239 165 204 205 
240 145 205 234 
241 205 204 234 
242 296 292 303 
243 282 280 284 
244 281 282 283 
245 205 145 238 
246 145 139 238 
247 208 178 209 
248 327 355 356 
249 206 166 207 
250 352 316 354 
251 281 283 285 
252 283 282 290 
253 296 303 304 
254 165 205 236 
255 286 283 353 
256 358 362 372 
257 368 365 370 
258 366 365 368 
259 139 137 238 
260 206 207 211 
261 361 365 366 
262 209 178 237 
263 240 226 451 
264 285 283 286 
265 296 304 305 
266 359 361 366 
267 222 180 229 
268 169 157 229 
269 283 290 353 
270 213 167 220 
271 167 213 221 
272 285 286 287 
273 305 304 320 
274 214 217 221 
275 180 169 229 
276 157 167 229 
277 213 214 221 
278 167 149 220 
279 221 222 229 
280 221 217 222 
281 170 224 225 
282 149 140 220 
283 320 304 336 
284 287 286 288 
285 305 320 321 
286 227 183 257 
287 170 223 224 
288 167 221 229 
289 183 182 257 
290 224 183 227 
291 174 183 223 
292 148 213 220 
293 223 183 224 
294 158 174 223 
295 225 224 226 
296 288 286 289 
297 321 320 332 
298 287 288 291 
299 141 148 220 
300 293 288 350 
301 226 224 227 
302 287 291 297 
303 291 288 293 
304 307 350 351 
305 159 158 223 
306 288 289 350 
307 291 293 294 
308 146 145 234 
309 371 358 372 
310 290 352 354 
311 294 293 298 
312 215 230 231 
313 152 186 230 
314 337 319 338 
315 311 319 337 
316 230 186 231 
317 150 152 230 
318 298 293 299 
319 322 300 330 
320 315 316 317 
321 317 329 345 
322 294 298 300 
323 325 318 326 
324 231 186 235 
325 326 318 327 
326 315 314 316 
327 315 317 345 
328 317 316 318 
329 155 151 234 
330 298 299 302 
331 204 155 234 
332 306 307 308 
333 294 300 301 
334 313 314 315 
335 310 309 311 
336 311 312 313 
337 177 202 233 
338 186 181 187 
339 186 187 235 
340 301 300 322 
341 338 343 344 
342 311 313 319 
343 201 200 206 
344 302 299 306 
345 177 200 201 
346 324 323 331 
347 152 154 181 
348 181 154 233 
349 154 155 177 
350 308 309 310 
351 200 155 204 
352 214 216 217 
353 168 172 189 
354 310 311 337 
355 156 150 230 
356 154 177 233 
357 214 215 216 
358 308 310 333 
359 154 151 155 
360 177 155 200 
361 152 151 154 
362 311 309 312 
363 152 181 186 
364 213 156 214 
365 215 156 230 
366 313 312 314 
367 177 201 202 
368 165 162 166 
369 168 169 172 
370 151 146 234 
371 214 156 215 
372 172 169 173 
373 173 169 180 
374 150 151 152 
375 306 299 307 
376 308 307 309 
377 308 333 339 
378 148 156 213 
379 301 323 324 
380 301 322 323 
381 326 328 371 
382 160 162 165 
383 162 161 178 
384 182 175 184 
385 168 157 169 
386 317 318 325 
387 148 150 156 
388 150 146 151 
389 170 159 223 
390 174 182 183 
391 331 323 394 
392 306 308 339 
393 317 325 329 
394 338 342 343 
395 313 315 341 
396 326 327 328 
397 300 298 346 
398 330 300 346 
399 298 302 346 
400 341 315 345 
401 306 339 340 
402 302 306 340 
403 319 313 341 
404 161 159 170 
405 338 319 342 
406 157 149 167 
407 160 161 162 
408 153 157 168 
409 174 175 182 
410 148 146 150 
411 342 341 347 
412 341 345 347 
413 319 341 342 
414 153 149 157 
415 142 153 164 
416 141 146 148 
417 160 159 161 
418 174 163 175 
419 325 326 374 
420 326 371 374 
421 361 364 365 
422 297 291 349 
423 291 294 349 
424 301 324 349 
425 142 149 153 
426 158 163 174 
427 141 145 146 
428 147 159 160 
429 314 312 348 
430 294 301 349 
431 367 366 368 
432 361 363 364 
433 299 293 350 
434 350 289 351 
435 141 139 145 
436 158 144 163 
437 147 158 159 
438 142 140 149 
439 140 141 220 
440 309 307 351 
441 348 312 351 
442 289 348 351 
443 307 299 350 
444 312 309 351 
445 361 360 363 
446 362 366 367 
447 147 144 158 
448 140 139 141 
449 138 140 142 
450 359 360 361 
451 362 359 366 
452 138 139 140 
453 143 144 147 
454 225 226 240 
455 143 236 238 
456 143 147 236 
457 160 165 236 
458 358 359 362 
459 359 357 360 
460 318 316 352 
461 170 225 237 
462 178 161 237 
463 143 136 144 
464 138 137 139 
465 236 205 238 
466 147 160 236 
467 327 318 352 
468 328 358 371 
469 161 170 237 
470 358 357 359 
471 357 356 375 
472 289 286 353 
473 137 136 143 
474 135 137 138 
475 316 314 354 
476 137 143 238 
477 348 289 353 
478 239 225 240 
479 353 290 354 
480 348 353 354 
481 314 348 354 
482 237 225 239 
483 328 357 358 
484 209 237 239 
485 135 136 137 
486 327 352 355 
487 355 284 356 
488 360 357 375 
489 356 284 375 
490 282 284 355 
491 328 356 357 
492 295 376 377 
493 295 296 376 
494 290 282 355 
495 352 290 355 
496 328 327 356 
497 296 305 376 
498 134 135 212 
499 135 133 136 
500 382 276 383 
501 134 133 135 
502 277 276 382 
503 131 133 134 
504 194 195 196 
505 132 176 198 
506 133 132 203 
507 292 279 378 
508 279 281 378 
509 281 285 378 
510 303 292 378 
511 287 297 379 
512 378 285 379 
513 303 378 379 
514 336 304 380 
515 336 380 381 
516 194 193 195 
517 131 132 133 
518 132 130 176 
519 285 287 379 
520 349 324 381 
521 379 297 380 
522 304 303 380 
523 380 297 381 
524 303 379 380 
525 297 349 381 
526 274 275 384 
527 375 284 382 
528 280 277 382 
529 131 130 132 
530 179 193 194 
531 360 375 383 
532 284 280 382 
533 363 360 383 
534 179 129 193 
535 129 130 131 
536 387 386 388 
537 273 272 390 
538 295 377 384 
539 275 278 384 
540 128 129 179 
541 129 127 130 
542 385 386 387 
543 278 295 384 
544 321 332 397 
545 199 189 242 
546 196 199 242 
547 402 399 405 
548 190 126 191 
549 128 127 129 
550 385 377 386 
551 384 377 385 
552 363 390 391 
553 274 384 385 
554 173 180 247 
555 396 321 397 
556 401 399 402 
557 363 383 390 
558 276 273 390 
559 127 126 190 
560 125 127 128 
561 390 272 391 
562 94 95 96 
563 323 393 394 
564 219 50 259 
565 383 276 390 
566 376 305 395 
567 364 391 392 
568 364 363 391 
569 122 67 431 
570 210 105 211 
571 395 321 396 
572 323 322 393 
573 107 227 257 
574 388 399 401 
575 305 321 395 
576 125 126 127 
577 389 414 461 
578 126 171 191 
579 246 173 247 
580 94 93 95 
581 394 393 416 
582 89 398 406 
583 63 99 420 
584 376 395 406 
585 89 396 408 
586 399 398 404 
587 67 122 253 
588 29 30 48 
589 27 28 42 
590 10 11 41 
591 12 13 45 
592 11 12 100 
593 91 389 461 
594 395 89 406 
595 386 377 406 
596 310 337 411 
597 271 274 407 
598 385 387 407 
599 120 124 188 
600 388 398 399 
601 126 121 171 
602 194 196 251 
603 373 413 454 
604 80 83 456 
605 45 97 100 
606 17 18 38 
607 19 20 47 
608 33 34 37 
609 34 35 103 
610 35 36 46 
611 15 16 49 
612 332 437 443 
613 398 89 404 
614 414 389 417 
615 336 74 437 
616 124 125 188 
617 125 121 126 
618 369 54 412 
619 249 113 250 
620 346 302 409 
621 74 336 439 
622 388 386 398 
623 197 192 447 
624 113 40 250 
625 346 409 459 
626 194 251 262 
627 243 86 254 
628 84 39 118 
629 12 45 100 
630 41 11 100 
631 240 451 453 
632 245 173 246 
633 117 44 434 
634 411 337 426 
635 245 51 248 
636 191 82 192 
637 123 121 124 
638 120 123 124 
639 56 108 462 
640 340 102 410 
641 103 46 108 
642 98 47 263 
643 377 376 406 
644 333 310 411 
645 81 93 94 
646 274 385 407 
647 387 388 414 
648 93 80 456 
649 180 222 259 
650 95 42 435 
651 370 365 415 
652 364 392 415 
653 32 33 109 
654 172 173 245 
655 39 25 118 
656 39 84 450 
657 112 73 443 
658 106 96 109 
659 87 77 254 
660 409 66 459 
661 37 34 103 
662 35 46 103 
663 9 10 57 
664 196 242 251 
665 109 96 110 
666 420 419 421 
667 252 243 455 
668 338 344 426 
669 251 78 262 
670 393 322 418 
671 76 393 418 
672 404 89 408 
673 268 269 436 
674 33 37 109 
675 45 13 111 
676 331 424 442 
677 302 340 409 
678 184 197 447 
679 392 391 422 
680 414 401 461 
681 94 96 106 
682 71 394 416 
683 272 270 422 
684 181 233 432 
685 62 65 79 
686 60 59 70 
687 58 61 69 
688 104 256 260 
689 320 336 437 
690 324 331 439 
691 336 381 439 
692 91 268 389 
693 206 211 241 
694 201 206 241 
695 5 55 438 
696 368 370 412 
697 27 42 116 
698 215 231 232 
699 216 215 232 
700 31 32 110 
701 13 14 111 
702 188 122 431 
703 101 65 410 
704 248 86 445 
705 98 263 268 
706 128 179 255 
707 32 109 110 
708 388 401 414 
709 245 248 445 
710 40 85 250 
711 389 268 436 
712 120 188 431 
713 247 180 259 
714 365 364 415 
715 14 2 444 
716 76 418 419 
717 108 46 462 
718 2 15 444 
719 99 71 416 
720 235 187 434 
721 29 48 435 
722 42 28 435 
723 30 4 446 
724 4 31 446 
725 37 103 260 
726 53 411 426 
727 222 219 259 
728 172 245 445 
729 77 252 455 
730 407 387 417 
731 124 121 125 
732 217 218 219 
733 17 38 430 
734 49 16 430 
735 107 185 244 
736 26 27 116 
737 255 179 262 
738 19 47 98 
739 38 18 98 
740 256 37 260 
741 394 71 424 
742 322 330 418 
743 78 253 429 
744 255 262 429 
745 44 235 434 
746 264 407 417 
747 114 88 405 
748 24 39 428 
749 86 189 445 
750 337 338 426 
751 25 26 118 
752 73 114 397 
753 63 420 421 
754 26 116 118 
755 46 438 462 
756 22 54 458 
757 88 90 425 
758 104 228 256 
759 88 75 90 
760 391 272 422 
761 187 433 434 
762 38 400 425 
763 42 93 456 
764 433 117 434 
765 438 55 462 
766 90 75 92 
767 392 423 449 
768 81 80 93 
769 179 194 262 
770 46 36 438 
771 442 112 443 
772 71 70 72 
773 23 24 428 
774 38 90 430 
775 73 72 75 
776 101 53 450 
777 85 77 460 
778 187 181 432 
779 226 227 452 
780 451 226 452 
781 232 44 258 
782 61 64 448 
783 332 320 437 
784 227 107 452 
785 16 17 430 
786 3 21 427 
787 28 29 435 
788 90 38 425 
789 415 392 449 
790 412 54 413 
791 381 324 439 
792 20 3 427 
793 82 81 244 
794 329 325 334 
795 334 325 374 
796 182 185 257 
797 182 184 185 
798 81 94 244 
799 43 372 373 
800 189 172 445 
801 67 69 448 
802 18 19 98 
803 211 105 241 
804 409 340 410 
805 47 20 427 
806 21 22 458 
807 403 91 461 
808 22 23 440 
809 74 442 443 
810 372 362 373 
811 362 367 373 
812 228 451 452 
813 330 346 459 
814 48 30 446 
815 116 42 456 
816 367 368 413 
817 267 47 427 
818 71 112 424 
819 6 7 441 
820 192 82 447 
821 437 74 443 
822 122 255 429 
823 103 105 260 
824 262 78 429 
825 335 334 440 
826 457 330 459 
827 15 49 444 
828 246 249 261 
829 334 43 440 
830 368 412 413 
831 419 418 457 
832 217 216 218 
833 187 432 433 
834 432 56 433 
835 424 112 442 
836 22 440 454 
837 54 22 454 
838 264 417 436 
839 417 389 436 
840 265 415 449 
841 111 14 444 
842 243 254 455 
843 31 110 446 
844 49 111 444 
845 110 48 446 
846 115 52 428 
847 39 115 428 
848 107 228 452 
849 83 116 456 
850 208 209 210 
851 43 373 454 
852 105 210 260 
853 400 88 425 
854 115 39 450 
855 413 54 454 
856 7 258 441 
857 418 330 457 
858 55 117 462 
859 210 104 260 
860 55 6 441 
861 268 263 269 
862 69 77 85 
863 228 106 256 
864 64 119 448 
865 119 67 448 
866 44 117 441 
867 117 55 441 
868 254 77 455 
869 69 61 448 
870 267 427 458 
871 258 44 441 
872 54 267 458 
873 329 334 335 
874 440 43 454 
875 84 101 450 
876 427 21 458 
877 50 8 113 
878 38 91 400 
879 47 265 423 
880 218 50 219 
881 51 87 248 
882 52 115 343 
883 53 101 102 
884 53 102 333 
885 115 53 344 
886 53 333 411 
887 344 53 426 
888 108 56 202 
889 202 56 233 
890 433 56 462 
891 65 66 410 
892 66 65 421 
893 419 66 421 
894 66 419 457 
895 77 67 252 
896 67 120 431 
897 252 67 253 
898 68 81 171 
899 121 68 171 
900 77 87 460 
901 81 82 171 
902 171 82 191 
903 82 185 447 
904 400 91 403 
905 228 104 453 
906 185 107 257 
907 108 202 241 
908 114 405 408 
909 185 184 447 
910 202 201 241 
911 208 210 211 
912 210 209 239 
913 218 216 232 
914 266 263 423 
915 265 267 369 
916 265 369 370 
917 423 265 449 
918 345 329 347 
919 343 342 347 
920 373 367 413 
921 400 402 405 
922 405 404 408 
$EndElements
